<?xml version="1.0" encoding="utf-8" ?>
<svg baseProfile="full" height="200mm" version="1.1" viewBox="0,0,200,200" width="200mm" xmlns="http://www.w3.org/2000/svg" xmlns:ev="http://www.w3.org/2001/xml-events" xmlns:xlink="http://www.w3.org/1999/xlink"><defs /><rect fill="#1a1a1a" height="200" width="200" x="0" y="0" /><text alignment-baseline="middle" fill="#e1ed5e" style="dominant-baseline: central; font-size:9.0px; font-family:Arial;" text-anchor="middle" x="100.0" y="100.0">2018</text><line stroke="#e1ed5e" stroke-width="0.3" x1="100.0" x2="100.0" y1="15.0" y2="10.0" /><path d="M 100.0 14.0 a86.0,86.0 0 0,1 42.46469731375804,11.215312516191453" fill="none" id="id25" stroke="none" /><text fill="#e1ed5e" style="font-size:6.75px; font-family:Arial;" text-anchor="middle"><textPath startOffset="22.20632615414155" xlink:href="#id25">January</textPath></text><path d="M 100.0 79.0 l 0.0 -18.000428024594072 a39.00042802459407,39.00042802459407 0 0,0 0.671328257817334,0.005778334260928847 l -0.30984777854480555 17.997761066941703" fill="#ffce13" stroke="none" /><path d="M 100.36148047927253 79.00311137660856 l 0.19642973056437923 -11.409781195607996 a32.41147192831404,32.41147192831404 0 0,0 0.5577448890010444,0.014404904975191929 l -0.39280125476029143 11.404709498490444" fill="#ff740a" stroke="none" /><path d="M 100.72285384407766 79.0124445844662 l 0.1876385992207941 -5.447955394446878 a26.451185763097822,26.451185763097822 0 0,0 0.45490896345312254,0.019589336892715394 l -0.2813883950632482 5.443918331029968" fill="#ff1e03" stroke="none" /><path d="M 104.307194497241 79.44645832069477 l 4.312059346273352 -20.57675629787282 a42.02371888006097,42.02371888006097 0 0,0 0.7067134324104899,0.15446018368354414 l -4.66561550283737 20.499482616093402" fill="#fff517" stroke="none" /><path d="M 105.01212808612495 79.60689891045804 l 3.269327552113042 -13.302079699366228 a34.69794973604797,34.69794973604797 0 0,0 0.578780160637685,0.14754395002439552 l -3.497816601435752 13.243832753172965" fill="#ff940d" stroke="none" /><path d="M 105.36241919743992 79.69619591428918 l 3.158246893282255 -11.95811513693697 a33.36814622597777,33.36814622597777 0 0,0 0.5540734772233483,0.15144921157199984 l -3.3636182597293143 11.901979384538675" fill="#ff820b" stroke="none" /><path d="M 105.71112130821622 79.79150937346287 l 3.0025898654825975 -10.624500142318329 a32.04063173801305,32.04063173801305 0 0,0 0.5294482211148456,0.15456045416957845 l -3.1850283043208703 10.571241359230047" fill="#ff6f0a" stroke="none" /><path d="M 106.0581310904928 79.89281104454417 l 1.5845263895889294 -5.259108963549877 a26.49262696437637,26.49262696437637 0 0,0 0.4355067782581507,0.13531407594317657 l -1.6748185405577982 5.231054752724179" fill="#ff1e03" stroke="none" /><line stroke="#e1ed5e" stroke-width="0.3" x1="143.23703022742887" x2="145.7803849466894" y1="26.81831364943548" y2="22.513508569990506" /><path d="M 143.74570117128098 25.957352633546492 a86.0,86.0 0 0,1 28.547481713284135,27.462654790039103" fill="none" id="id26" stroke="none" /><text fill="#e1ed5e" style="font-size:6.75px; font-family:Arial;" text-anchor="middle"><textPath startOffset="19.985693538727396" xlink:href="#id26">February</textPath></text><path d="M 113.6212207817346 84.01681056812373 l 3.640982088050513 -4.272341470994709 a26.613345901535546,26.613345901535546 0 0,0 0.34610808592705145,0.3001415215102255 l -3.7139839726243284 4.209034956064813" fill="#ff2003" stroke="none" /><path d="M 117.04232023915458 87.72973835380427 l 21.51193170077824 -15.488327104498513 a47.50757404959743,47.50757404959743 0 0,0 0.4721062460896917,0.66776080442696 l -21.775350566671815 15.11573979973976" fill="#c5ff1e" stroke="none" /><path d="M 117.2510076193507 88.02491185347247 l 4.570712414153655 -3.1728398282382644 a26.564020538113905,26.564020538113905 0 0,0 0.2575135559539657,0.37786936785861464 l -4.624650435776354 3.0936924371092434" fill="#ff1f03" stroke="none" /><path d="M 117.65298651832404 88.62581576622439 l 6.805047805143148 -4.384633012380331 a29.095287659097668,29.095287659097668 0 0,0 0.2676384121439656,0.4233396945080533 l -6.87951381353307 4.266845670158072" fill="#ff4506" stroke="none" /><line stroke="#e1ed5e" stroke-width="0.3" x1="172.23445277983987" x2="176.4835382374775" y1="55.19839476539836" y2="52.563006222186495" /><path d="M 173.08426987136738 54.67131705675599 a86.0,86.0 0 0,1 12.851231095245387,41.99856678651699" fill="none" id="id27" stroke="none" /><text fill="#e1ed5e" style="font-size:6.75px; font-family:Arial;" text-anchor="middle"><textPath startOffset="22.20632615414155" xlink:href="#id27">March</textPath></text><path d="M 117.84615892207809 88.93136811851018 l 4.715538536253027 -2.924694350681391 a26.54888644070096,26.54888644070096 0 0,0 0.2375293493000378,0.3904357961120952 l -4.765183683839289 2.8430907813622146" fill="#ff1f03" stroke="none" /><path d="M 120.28053869075195 94.5502522615342 l 4.9981510120200126 -1.3430936223941425 a26.175462686318248,26.175462686318248 0 0,0 0.11318228699570083,0.4361375217550212 l -5.020529630886016 1.256859675090271" fill="#ff1902" stroke="none" /><path d="M 120.6074358757038 95.95851677861258 l 15.961694752268627 -3.1303710910612406 a37.265759205532085,37.265759205532085 0 0,0 0.11803357126216495,0.6305400574155647 l -16.013214047440652 2.855152956183113" fill="#ffb711" stroke="none" /><path d="M 120.67395015179393 96.31383870115 l 51.242127783076 -9.136461436631183 a73.05026981025303,73.05026981025303 0 0,0 0.2100652290136491,1.2398168727493657 l -51.39180487360987 8.253058775565979" fill="#3fffbd" stroke="none" /><path d="M 120.87857604477298 97.74499172005257 l 5.710304334454341 -0.6167462535567877 a26.743513866385662,26.743513866385662 0 0,0 0.04549310403164141,0.4581093491754365 l -5.720074564168211 0.5183613736769163" fill="#ff2203" stroke="none" /><path d="M 120.91429891909075 98.10471618934814 l 5.494515297162157 -0.4979208688934233 a26.51703031915074,26.51703031915074 0 0,0 0.03728233370223969,0.45493890385569763 l -5.502272114683891 0.4032680478299569" fill="#ff1f03" stroke="none" /><line stroke="#e1ed5e" stroke-width="0.3" x1="184.98032266829074" x2="189.97916517819016" y1="98.17113171792111" y2="98.06355123074" /><path d="M 185.9800911702706 98.14961562048488 a86.0,86.0 0 0,1 -9.607161424134198,41.387399972396054" fill="none" id="id28" stroke="none" /><text fill="#e1ed5e" style="font-size:6.75px; font-family:Arial;" text-anchor="middle"><textPath startOffset="21.466115282336823" xlink:href="#id28">April</textPath></text><path d="M 120.95626037817324 101.35467743843564 l 62.86878113451971 4.064032315306923 a84.0,84.0 0 0,0 -0.10569376534264929,1.4421074540129188 l -62.789510810512716 -5.145612905816612" fill="#4dd2ff" stroke="none" /><path d="M 120.89721153311464 102.0752229133903 l 5.4734794737219215 0.5435505116000634 a26.500402231465976,26.500402231465976 0 0,0 -0.04898498209151896,0.45354009683435015 l -5.463312190129351 -0.637686930319205" fill="#ff1e03" stroke="none" /><path d="M 120.76222939487914 103.15116336523771 l 3.449026824955706 0.5234720592771775 a24.48852533832104,24.48852533832104 0 0,0 -0.06683996717484275,0.4162125394014769 l -3.4395051034195747 -0.5827638283718594" fill="#ff0000" stroke="none" /><path d="M 120.70491114924044 103.5080841355445 l 5.037363361130111 0.8534928918447419 a26.109156461538984,26.109156461538984 0 0,0 -0.07889137452416227,0.442464724706398 l -5.02192554426676 -0.9400763672843582" fill="#ff1802" stroke="none" /><path d="M 120.32669344350535 105.2749913415812 l 7.83562964460589 2.0334285379966466 a29.095179031162054,29.095179031162054 0 0,0 -0.12997498638541422,0.4836852762218734 l -7.799466581878699 -2.168004747394068" fill="#ff4506" stroke="none" /><path d="M 120.23288151984713 105.62410040840565 l 14.844686238283773 4.12635273198676 a36.40751428303301,36.40751428303301 0 0,0 -0.1730351427676761,0.6023580320523799 l -14.771458458629997 -4.381268239543722" fill="#ffac0f" stroke="none" /><path d="M 120.13307415673323 105.97154293290107 l 10.692222942522616 3.1713521667067543 a32.15262776290335,32.15262776290335 0 0,0 -0.16194701004243856,0.52925219900998 l -10.636049159974045 -3.3549313382687913" fill="#ff710a" stroke="none" /><line stroke="#e1ed5e" stroke-width="0.3" x1="174.80103733775053" x2="179.2010983576182" y1="140.37084112569926" y2="142.7455964860345" /><path d="M 175.68104954172406 140.8457921977663 a86.0,86.0 0 0,1 -30.038265399797805,32.042727171017184" fill="none" id="id29" stroke="none" /><text fill="#e1ed5e" style="font-size:6.75px; font-family:Arial;" text-anchor="middle"><textPath startOffset="22.206326154141568" xlink:href="#id29">May</textPath></text><path d="M 118.30583269289576 110.29060199501025 l 5.6756119790079955 3.1905384985163807 a27.510922150262143,27.510922150262143 0 0,0 -0.23560878251104442,0.4108037718313855 l -5.619851200344571 -3.2877621162060815" fill="#ff2d04" stroke="none" /><path d="M 118.12598468904814 110.60418214915192 l 9.639930380799314 5.639615139082827 a32.16841603199083,32.16841603199083 0 0,0 -0.2837240879819262,0.4755378912367577 l -9.541425417119159 -5.804715124205689" fill="#ff710a" stroke="none" /><path d="M 117.94076556474637 110.91462005526583 l 4.683052238495414 2.8490275789890553 a26.481599804283157,26.481599804283157 0 0,0 -0.24027053147037594,0.38739260053297336 l -4.6333170673570745 -2.929216510887302" fill="#ff1e03" stroke="none" /><path d="M 115.80600337817218 113.82643327865902 l 4.037607513211913 3.5319308462208268 a26.364402103984325,26.364402103984325 0 0,0 -0.3017357490478744,0.33900331273400064 l -3.9762129145157004 -3.6009083286956938" fill="#ff1c02" stroke="none" /><path d="M 115.56566222782051 114.09645910891815 l 4.044548442198991 3.662793840380006 a26.45659516717339,26.45659516717339 0 0,0 -0.3086018104001021,0.3349263155915293 l -3.9809002238031668 -3.7318714107728703" fill="#ff1e03" stroke="none" /><path d="M 115.07121518719521 114.62390073753431 l 4.0394835759393395 3.919591493566268 a26.62855443579617,26.62855443579617 0 0,0 -0.32202719238997335,0.3262118457219954 l -3.9714157584938308 -3.988543833268928" fill="#ff2003" stroke="none" /><path d="M 114.81725581225074 114.88116024355365 l 4.502540060297634 4.521958788408815 a27.381299105875915,27.381299105875915 0 0,0 -0.33685523466741263,0.32968374575080933 l -4.424034873254428 -4.598792637082196" fill="#ff2b04" stroke="none" /><line stroke="#e1ed5e" stroke-width="0.3" x1="143.8653032363475" x2="146.44561519142675" y1="172.8068346515853" y2="177.08958963109032" /><path d="M 144.38136562736335 173.6633856474863 a86.0,86.0 0 0,1 -40.68145358897372,12.25698825130547" fill="none" id="id30" stroke="none" /><text fill="#e1ed5e" style="font-size:6.75px; font-family:Arial;" text-anchor="middle"><textPath startOffset="21.466115282336833" xlink:href="#id30">June</textPath></text><path d="M 110.5260780823613 118.17145234162733 l 19.221393614820197 33.18240994209038 a59.34754623259211,59.34754623259211 0 0,0 -0.8883797304007846,0.5044451962083151 l -18.64736511749821 -33.50835830409333" fill="#41ff2d" stroke="none" /><path d="M 110.21172684928248 118.3499491758327 l 8.509228366910284 15.290646759644648 a38.49888127076877,38.49888127076877 0 0,0 -0.5818412706628255,0.3172662524141534 l -8.24476428437881 -15.434853663818572" fill="#ffc812" stroke="none" /><path d="M 107.93186726928326 119.44442032107085 l 15.297909058322963 37.50175887530046 a61.50194983328453,61.50194983328453 0 0,0 -0.9836766062538442,0.39142522239991057 l -14.650111376027253 -37.75953094210644" fill="#30ff35" stroke="none" /><path d="M 105.18746579009965 120.34920634021253 l 4.918371805167956 19.293614024840366 a40.91064849153307,40.91064849153307 0 0,0 -0.6838832748560851,0.16808187016221438 l -4.58553524556866 -19.37541715331661" fill="#ffe715" stroke="none" /><path d="M 103.06178313531738 120.77559828337769 l 2.181206842243854 14.80048557479423 a35.96034881071773,35.96034881071773 0 0,0 -0.613160607622223,0.08497847308425903 l -1.9261176434348006 -14.835838613371092" fill="#ffa50f" stroke="none" /><line stroke="#e1ed5e" stroke-width="0.3" x1="102.19456741930631" x2="102.32365962044197" y1="184.97166512339345" y2="189.96999836594603" /><path d="M 102.22038585953345 185.97133177190398 a86.0,86.0 0 0,1 -42.740103519485714,-10.115201625700543" fill="none" id="id31" stroke="none" /><text fill="#e1ed5e" style="font-size:6.75px; font-family:Arial;" text-anchor="middle"><textPath startOffset="22.20632615414155" xlink:href="#id31">July</textPath></text><path d="M 98.37488393609728 120.93702456842531 l -0.5535984714072084 7.132232001362617 a28.15368468614639,28.15368468614639 0 0,0 -0.48284331029659827,-0.04166175251108298 l 0.6762860994453483 -7.1216459965728705" fill="#ff3705" stroke="none" /><line stroke="#e1ed5e" stroke-width="0.3" x1="58.666819895761336" x2="56.23545636021788" y1="174.27360380694188" y2="178.64263932499728" /><path d="M 58.180547188652646 175.14741091055294 a86.0,86.0 0 0,1 -31.652253787137756,-30.449443065178592" fill="none" id="id32" stroke="none" /><text fill="#e1ed5e" style="font-size:6.75px; font-family:Arial;" text-anchor="middle"><textPath startOffset="22.20632615414155" xlink:href="#id32">August</textPath></text><path d="M 86.51685102203217 116.09983520530335 l -3.6345995266926048 4.339969358244383 a26.660887540830878,26.660887540830878 0 0,0 -0.34930145655139017,-0.2976822792063636 l 3.7087664598210517 -4.276762688815068" fill="#ff2103" stroke="none" /><path d="M 86.24171649860922 115.8653595955263 l -7.886841308910742 9.09470817533826 a33.038105441742296,33.038105441742296 0 0,0 -0.42643957740298705,-0.37628334577865574 l 8.042223239220316 -8.957601687787315" fill="#ff7d0b" stroke="none" /><path d="M 85.97065885151581 115.62618273729859 l -5.682579900444919 6.32938004741915 a29.50604291722116,29.50604291722116 0 0,0 -0.37500838800269765,-0.3425612710774022 l 5.790687837914471 -6.230626009755172" fill="#ff4b06" stroke="none" /><path d="M 85.70375840098266 115.38237550388516 l -6.987379752484965 7.518234663042891 a31.26388465708849,31.26388465708849 0 0,0 -0.39104296081694706,-0.3697555271233859 l 7.115758547692728 -7.396844499173574" fill="#ff6409" stroke="none" /><path d="M 85.44109423537348 115.13401014063109 l -3.922635550458627 4.077587090568258 a26.65807265266988,26.65807265266988 0 0,0 -0.32795782568508575,-0.3209757584052495 l 3.9922433285195074 -4.009461229240439" fill="#ff2103" stroke="none" /><path d="M 85.18274418774928 114.88116024355367 l -3.8812087123466985 3.8979477387003807 a26.500707012960728,26.500707012960728 0 0,0 -0.32048109469514063,-0.3246456569198768 l 3.9477304320973725 -3.8305615877998394" fill="#ff1e03" stroke="none" /><path d="M 84.19399662182784 113.82643327865904 l -11.391559628554434 9.964861791791408 a36.13492984127827,36.13492984127827 0 0,0 -0.4054984230110293,-0.471686275699323 l 11.561400561136242 -9.767298416930554" fill="#ffa80f" stroke="none" /><path d="M 83.95833913139862 113.55231037782056 l -8.410602368264886 7.105442179136167 a32.010247079793906,32.010247079793906 0 0,0 -0.35196638548193615,-0.4239661848691322 l 8.531664753640358 -6.959614737153274" fill="#ff6f0a" stroke="none" /><path d="M 83.72743513129214 113.27417163493432 l -3.9743538425321447 3.2420368558605492 a26.128965923108495,26.128965923108495 0 0,0 -0.28129957960684554,-0.3509644773471925 l 4.029571334193851 -3.1731445449350972" fill="#ff1902" stroke="none" /><path d="M 83.50135304334701 112.99209946851258 l -11.587079121536437 9.124413952977045 a35.748401016856974,35.748401016856974 0 0,0 -0.37653821906111584,-0.4867264059992183 l 11.742424157815622 -8.923609552864574" fill="#ffa30f" stroke="none" /><path d="M 82.85270091963577 112.12312394758628 l -4.428733515646965 3.131110333434347 a26.423793181229726,26.423793181229726 0 0,0 -0.2593798455101947,-0.37365601292044776 l 4.481974268319294 -3.0544130583268867" fill="#ff1d03" stroke="none" /><path d="M 82.24976979558568 111.22182372390057 l -5.761371530413129 3.6423806890187107 a27.816182142166635,27.816182142166635 0 0,0 -0.25237934702473763,-0.4069158667374102 l 5.823215517105823 -3.542668490916036" fill="#ff3204" stroke="none" /><path d="M 82.05923443525364 110.91462005526583 l -8.90213788131752 5.415791890458466 a31.42011807316712,31.42011807316712 0 0,0 -0.2771241311890558,-0.46447598402310275 l 8.994042888204808 -5.2617538125492525" fill="#ff6609" stroke="none" /><line stroke="#e1ed5e" stroke-width="0.3" x1="26.63291911575756" x2="22.317208475507996" y1="142.92168965132927" y2="145.44649492493687" /><path d="M 25.769776987707644 143.4266507060508 a86.0,86.0 0 0,1 -11.730757126820373,-40.83630448921669" fill="none" id="id33" stroke="none" /><text fill="#e1ed5e" style="font-size:6.75px; font-family:Arial;" text-anchor="middle"><textPath startOffset="21.46611528233685" xlink:href="#id33">September</textPath></text><path d="M 81.87401531095188 110.60418214915194 l -6.453831641398903 3.775662810015765 a28.477136651851282,28.477136651851282 0 0,0 -0.24388362772054425,-0.42523166194293244 l 6.517867265271824 -3.6640113022145258" fill="#ff3c05" stroke="none" /><path d="M 81.51974371655577 109.97397251340807 l -4.755098041747274 2.5663722645143237 a26.403445566182484,26.403445566182484 0 0,0 -0.2124188525060611,-0.4018164168067961 l 4.798569402478221 -2.4841408326214016" fill="#ff1d02" stroke="none" /><path d="M 81.35079622478065 109.6543875284942 l -9.654108595773335 4.997773993419 a31.871042161093843,31.871042161093843 0 0,0 -0.24801943358399678,-0.48936587207099363 l 9.738706699143599 -4.830853909645321" fill="#ff6d0a" stroke="none" /><path d="M 81.18737489456691 109.33194174019688 l -4.888275975786106 2.4248134622565667 a26.456643871665833,26.456643871665833 0 0,0 -0.19886167028793356,-0.4097139416742427 l 4.929290902688759 -2.340310564617039" fill="#ff1e03" stroke="none" /><path d="M 81.02952815118164 109.00673069616217 l -4.9419313723291465 2.3463119601980917 a26.470636663440523,26.470636663440523 0 0,0 -0.1918810861231412,-0.41329478896645194 l 4.981587075292114 -2.260897103952813" fill="#ff1e03" stroke="none" /><path d="M 80.32549172779594 107.34259656027581 l -22.611938410744685 8.438855949984191 a45.13532780875152,45.13532780875152 0 0,0 -0.26538656933128757,-0.7302298598035425 l 22.7538492410812 -8.048378293174531" fill="#e2ff1b" stroke="none" /><path d="M 80.20201598880116 107.00284435728193 l -5.121417260550549 1.8115222208506556 a26.432359295306302,26.432359295306302 0 0,0 -0.14803275299671456,-0.4302524728041453 l 5.151840844490492 -1.7230970449572134" fill="#ff1d03" stroke="none" /><path d="M 79.58551787078972 104.9243191809786 l -5.413569455062425 1.3058447300497367 a26.568838721294014,26.568838721294014 0 0,0 -0.10341532576004406,-0.44551051674373576 l 5.435245346753024 -1.2124655559574267" fill="#ff1f03" stroke="none" /><path d="M 79.50377843672027 104.57218783832718 l -10.84880510775088 2.420093607053254 a32.115458844908815,32.115458844908815 0 0,0 -0.11571652691931843,-0.5405890897516284 l 10.88885567339464 -2.232990697885462" fill="#ff700a" stroke="none" /><path d="M 79.4281124754447 104.21870165774334 l -14.382074565073104 2.9493492873242726 a35.681373573816686,35.681373573816686 0 0,0 -0.11820740719289098,-0.6027370226034142 l 14.430711905241662 -2.701348537652904" fill="#ffa20e" stroke="none" /><path d="M 79.18660465613746 102.79330883721812 l -30.419504541714876 4.082518467378523 a51.69223376686517,51.69223376686517 0 0,0 -0.11076535729371656,-0.8829088806380689 l 30.48527140825544 -3.5582918324530457" fill="#94ff23" stroke="none" /><path d="M 79.1416061653843 102.43462659150553 l -10.222673663967571 1.1932075564358664 a31.292074674851122,31.292074674851122 0 0,0 -0.05784220572071146,-0.5355469873332169 l 10.241698171189336 -1.0170642472178675" fill="#ff6409" stroke="none" /><path d="M 79.10278846688536 102.07522291339032 l -5.609279002513041 0.5570362483610874 a26.636869726188632,26.636869726188632 0 0,0 -0.04138279184437399,-0.45665565963024596 l 5.618036390634491 -0.46039920018227526" fill="#ff2003" stroke="none" /><path d="M 79.0235259727143 100.99374915477108 l -16.3662480934913 0.7753421851796923 a37.38460350944834,37.38460350944834 0 0,0 -0.024919272063608944,-0.643055685665387 l 16.377169498406108 -0.4935092525003085" fill="#ffb911" stroke="none" /><line stroke="#e1ed5e" stroke-width="0.3" x1="15.007084014347285" x2="10.007500721073583" y1="101.09737516637583" y2="101.16192664675087" /><path d="M 14.007167355692545 101.11028546245083 a86.0,86.0 0 0,1 10.666146001902534,-42.60595125391555" fill="none" id="id34" stroke="none" /><text fill="#e1ed5e" style="font-size:6.75px; font-family:Arial;" text-anchor="middle"><textPath startOffset="22.20632615414155" xlink:href="#id34">October</textPath></text><path d="M 79.01574976396665 99.18683210126434 l -5.765106905860457 -0.22340564070165828 a26.769433916451185,26.769433916451185 0 0,0 0.02180611542582278,-0.4602926318676117 l 5.760407182201136 0.32260937919227906" fill="#ff2203" stroke="none" /><path d="M 79.08570108090925 98.10471618934814 l -15.535193265037455 -1.4078215293985699 a36.5988522411331,36.5988522411331 0 0,0 0.06225791422784196,-0.6269286999651703 l 15.508658225127384 1.6750257600681704" fill="#ffae10" stroke="none" /><path d="M 79.12142395522702 97.74499172005258 l -32.04948330283899 -3.461531574804504 a53.23587412840427,53.23587412840427 0 0,0 0.10624269963175223,-0.9102225691215736 l 31.98515025020365 4.012697882250939" fill="#83ff25" stroke="none" /><path d="M 79.21141760316559 97.0276538004421 l -33.63066593877104 -4.808504023195408 a54.97268612321229,54.97268612321229 0 0,0 0.14199734495215807,-0.9355850864108094 l 33.54291270037958 5.386688221998309" fill="#6fff27" stroke="none" /><path d="M 79.26566170972629 96.67025291283419 l -33.09994072258443 -5.3155509311858316 a54.524038502850956,54.524038502850956 0 0,0 0.1567907232184217,-0.9253877238490984 l 33.00353813784578 5.884524443350759" fill="#74ff27" stroke="none" /><path d="M 79.32604984820605 96.31383870115002 l -32.07816842782861 -5.719531203686913 a53.58407474325592,53.58407474325592 0 0,0 0.16971933054797786,-0.9066474502458521 l 31.974963373370766 6.270856731395337" fill="#7fff26" stroke="none" /><path d="M 79.81627453868168 94.20196356495316 l -28.152864301168545 -8.087274734386092 a50.29142845593997,50.29142845593997 0 0,0 0.24617439386186296,-0.829977676255603 l 28.009484010194974 8.570681797388234" fill="#a4ff21" stroke="none" /><path d="M 79.91906864156998 93.8553929516997 l -25.70130736894982 -7.864397900224116 a47.877610660292774,47.877610660292774 0 0,0 0.24792512426608684,-0.7859903955731837 l 25.56212676091553 8.305638462223714" fill="#c0ff1e" stroke="none" /><path d="M 80.38941819471856 92.48833698450439 l -13.946278007127475 -5.342000647922946 a35.93437783017748,35.93437783017748 0 0,0 0.22622650143513448,-0.5757217704483253 l 13.85225795581065 5.581271423267035" fill="#ffa50f" stroke="none" /><path d="M 80.803312248108 91.48605970444005 l -13.174571588097104 -5.843066125279032 a35.41217396072774,35.41217396072774 0 0,0 0.2519284162392122,-0.5550908708060706 l 13.072040854894539 6.068979004927173" fill="#ff9e0e" stroke="none" /><path d="M 81.26839172434947 90.50648371742162 l -26.112164447025563 -13.234115015817686 a50.27433914472532,50.27433914472532 0 0,0 0.3978629009505985,-0.7685444874186581 l 25.88049211291485 13.68163222549668" fill="#a4ff21" stroke="none" /><path d="M 81.43458229118936 90.18545643968196 l -25.609305055714497 -13.538270130033338 a49.967589881631454,49.967589881631454 0 0,0 0.4085252611547219,-0.7569352646852802 l 25.372471695341304 13.97708637805109" fill="#a8ff21" stroke="none" /><path d="M 81.6062741919709 89.86733742301443 l -25.622073215852907 -14.114585871761202 a50.252558353242335,50.252558353242335 0 0,0 0.423897938942053,-0.7540671335748165 l 25.375317635618423 14.553536515270803" fill="#a5ff21" stroke="none" /><line stroke="#e1ed5e" stroke-width="0.3" x1="26.266209847984243" x2="21.928928074336255" y1="57.711370442889674" y2="55.22380399835377" /><path d="M 25.398753493254645 57.213857153982495 a86.0,86.0 0 0,1 29.58750427330803,-30.492523968695096" fill="none" id="id35" stroke="none" /><text fill="#e1ed5e" style="font-size:6.75px; font-family:Arial;" text-anchor="middle"><textPath startOffset="21.46611528233685" xlink:href="#id35">November</textPath></text><path d="M 81.78341655067845 89.55222093294921 l -40.697014096081844 -23.341007557613697 a67.91534493256192,67.91534493256192 0 0,0 0.5903471034500009,-1.0090945636212432 l 40.289207318161516 24.03808153358883" fill="#38ff82" stroke="none" /><path d="M 82.15384107792192 88.93136811851018 l -27.63243971357895 -17.138326768943205 a53.51574955254223,53.51574955254223 0 0,0 0.4922745704649348,-0.7786601504817237 l 27.33333754686805 17.611434567139142" fill="#7fff26" stroke="none" /><line stroke="#e1ed5e" stroke-width="0.3" x1="56.762969772571076" x2="54.21961505331055" y1="26.818313649435495" y2="22.513508569990535" /><path d="M 56.25429882871897 25.957352633546506 a86.0,86.0 0 0,1 42.265352541879196,-11.944610805530505" fill="none" id="id36" stroke="none" /><text fill="#e1ed5e" style="font-size:6.75px; font-family:Arial;" text-anchor="middle"><textPath startOffset="22.20632615414155" xlink:href="#id36">December</textPath></text><path d="M 89.3179101791058 81.91981866633112 l -23.27392562888868 -39.39274081870673 a66.75438387071608,66.75438387071608 0 0,0 0.9943328284297296,-0.5759817539696497 l 22.59239606799363 39.787526730066425" fill="#37ff75" stroke="none" /><path d="M 93.25333710446033 80.11325718540243 l -9.776000569908875 -28.816143936532935 a51.42926779457308,51.42926779457308 0 0,0 0.8407881463510561,-0.2771946326543929 l 9.278529601315409 28.98015229344656" fill="#97ff23" stroke="none" /><path d="M 94.28887869178378 79.79150937346287 l -14.40508114485413 -50.97159236864695 a73.96800535592538,73.96800535592538 0 0,0 1.228228552262961,-0.3357212599358246 l 13.525554703367446 51.21200016940907" fill="#40ffc7" stroke="none" /></svg>