<?xml version="1.0" encoding="utf-8" ?>
<svg baseProfile="full" height="200mm" version="1.1" viewBox="0,0,200,200" width="200mm" xmlns="http://www.w3.org/2000/svg" xmlns:ev="http://www.w3.org/2001/xml-events" xmlns:xlink="http://www.w3.org/1999/xlink"><defs /><rect fill="#1a1a1a" height="200" width="200" x="0" y="0" /><text alignment-baseline="middle" fill="#e1ed5e" style="dominant-baseline: central; font-size:9.0px; font-family:Arial;" text-anchor="middle" x="100.0" y="100.0">2019</text><line stroke="#e1ed5e" stroke-width="0.3" x1="100.0" x2="100.0" y1="15.0" y2="10.0" /><path d="M 100.0 14.0 a86.0,86.0 0 0,1 42.46469731375804,11.215312516191453" fill="none" id="id37" stroke="none" /><text fill="#e1ed5e" style="font-size:6.75px; font-family:Arial;" text-anchor="middle"><textPath startOffset="22.20632615414155" xlink:href="#id37">January</textPath></text><path d="M 102.16513564639614 79.11191278185805 l 0.1954406377996535 -1.8855082336866862 a22.895610282258414,22.895610282258414 0 0,0 0.3916602646120152,0.04400759422628899 l -0.227867605921394 1.8818646859897963" fill="#ff0100" stroke="none" /><line stroke="#e1ed5e" stroke-width="0.3" x1="143.23703022742887" x2="145.7803849466894" y1="26.81831364943548" y2="22.513508569990506" /><path d="M 143.74570117128098 25.957352633546492 a86.0,86.0 0 0,1 28.547481713284135,27.462654790039103" fill="none" id="id38" stroke="none" /><text fill="#e1ed5e" style="font-size:6.75px; font-family:Arial;" text-anchor="middle"><textPath startOffset="19.985693538727396" xlink:href="#id38">February</textPath></text><line stroke="#e1ed5e" stroke-width="0.3" x1="172.23445277983987" x2="176.4835382374775" y1="55.19839476539836" y2="52.563006222186495" /><path d="M 173.08426987136738 54.67131705675599 a86.0,86.0 0 0,1 12.851231095245387,41.99856678651699" fill="none" id="id39" stroke="none" /><text fill="#e1ed5e" style="font-size:6.75px; font-family:Arial;" text-anchor="middle"><textPath startOffset="22.20632615414155" xlink:href="#id39">March</textPath></text><path d="M 120.87857604477298 97.74499172005257 l 2.031366898854118 -0.2193995015131299 a23.043180760242326,23.043180760242326 0 0,0 0.039198507151420134,0.39472361761237834 l -2.034842531687767 0.1844003531963166" fill="#ff0300" stroke="none" /><line stroke="#e1ed5e" stroke-width="0.3" x1="184.98032266829074" x2="189.97916517819016" y1="98.17113171792111" y2="98.06355123074" /><path d="M 185.9800911702706 98.14961562048488 a86.0,86.0 0 0,1 -9.607161424134198,41.387399972396054" fill="none" id="id40" stroke="none" /><text fill="#e1ed5e" style="font-size:6.75px; font-family:Arial;" text-anchor="middle"><textPath startOffset="21.466115282336823" xlink:href="#id40">April</textPath></text><path d="M 119.9155931802556 106.66101706037122 l 20.550287844151548 6.873298559901392 a42.66925387665725,42.66925387665725 0 0,0 -0.23896645203361846,0.6945483673263876 l -20.428930561174695 -7.226019630317079" fill="#f2ff19" stroke="none" /><path d="M 119.67450827220406 107.3425965602758 l 15.843385808491771 5.912808011822386 a37.91077090086048,37.91077090086048 0 0,0 -0.23343235916672783,0.6094182294913486 l -15.739259169731536 -6.184649808146879" fill="#ffd013" stroke="none" /><line stroke="#e1ed5e" stroke-width="0.3" x1="174.80103733775053" x2="179.2010983576182" y1="140.37084112569926" y2="142.7455964860345" /><path d="M 175.68104954172406 140.8457921977663 a86.0,86.0 0 0,1 -30.038265399797805,32.042727171017184" fill="none" id="id41" stroke="none" /><text fill="#e1ed5e" style="font-size:6.75px; font-family:Arial;" text-anchor="middle"><textPath startOffset="22.206326154141568" xlink:href="#id41">May</textPath></text><path d="M 118.48025628344425 109.97397251340804 l 30.784022107303596 16.614433568513668 a55.98135817697064,55.98135817697064 0 0,0 -0.46497473795277683,0.8440642104267148 l -30.493470959899312 -17.14186829733819" fill="#5cff2a" stroke="none" /><path d="M 117.94076556474637 110.91462005526583 l 22.43594231629069 13.649349860819914 a47.26168805014232,47.26168805014232 0 0,0 -0.42881060773972374,0.6913792359463682 l -22.197667068883003 -14.033525428131556" fill="#bcff1f" stroke="none" /><path d="M 116.93607887273984 112.41649034213515 l 4.7731580806494565 3.4993856402772243 a26.918508082468726,26.918508082468726 0 0,0 -0.2771820995338554,0.37133071877693313 l -4.712214714420509 -3.5810292385634725" fill="#ff3c05" stroke="none" /><line stroke="#e1ed5e" stroke-width="0.3" x1="143.8653032363475" x2="146.44561519142675" y1="172.8068346515853" y2="177.08958963109032" /><path d="M 144.38136562736335 173.6633856474863 a86.0,86.0 0 0,1 -40.68145358897372,12.25698825130547" fill="none" id="id42" stroke="none" /><text fill="#e1ed5e" style="font-size:6.75px; font-family:Arial;" text-anchor="middle"><textPath startOffset="21.466115282336833" xlink:href="#id42">June</textPath></text><path d="M 103.41894727170886 120.7198165907248 l 5.682421298365772 34.43712866461343 a55.902804220796654,55.902804220796654 0 0,0 -0.9507846091134753,0.1484930020704475 l -5.088800825643779 -34.529839974030985" fill="#5dff2a" stroke="none" /><path d="M 102.70371172650421 120.8252237178851 l 0.5854856251644056 4.509677939452315 a25.547525539769627,25.547525539769627 0 0,0 -0.4365860154818001,0.052864486414584896 l -0.5077721866312251 -4.519087954592251" fill="#ff2803" stroke="none" /><path d="M 100.90346689309514 120.98055641714683 l 0.19564470336602263 4.54331505455013 a25.547525539769627,25.547525539769627 0 0,0 -0.4395143353614671,0.015137762381231936 l -0.11741001632990321 -4.546009615357456" fill="#ff2803" stroke="none" /><line stroke="#e1ed5e" stroke-width="0.3" x1="102.19456741930631" x2="102.32365962044197" y1="184.97166512339345" y2="189.96999836594603" /><path d="M 102.22038585953345 185.97133177190398 a86.0,86.0 0 0,1 -42.740103519485714,-10.115201625700543" fill="none" id="id43" stroke="none" /><text fill="#e1ed5e" style="font-size:6.75px; font-family:Arial;" text-anchor="middle"><textPath startOffset="22.20632615414155" xlink:href="#id43">July</textPath></text><path d="M 97.2962882734958 120.8252237178851 l -0.2341942500657612 1.8038711757809276 a22.819010215907852,22.819010215907852 0 0,0 -0.38908738741581994,-0.05392396652348165 l 0.2652102286684122 -1.799572643764841" fill="#ff0000" stroke="none" /><path d="M 94.81253420990036 120.34920634021253 l -0.8272349751048419 3.2450479446777547 a24.348828730660024,24.348828730660024 0 0,0 -0.4052451594148511,-0.10702892981740056 l 0.8829705773311822 -3.2303276655567728" fill="#ff1702" stroke="none" /><path d="M 91.7346041902142 119.30500536409082 l -10.864093702651695 25.374633233821097 a48.60254596465577,48.60254596465577 0 0,0 -0.7662522918044882,-0.3359024866479635 l 11.299266669113926 -25.183866193878682" fill="#acff20" stroke="none" /><line stroke="#e1ed5e" stroke-width="0.3" x1="58.666819895761336" x2="56.23545636021788" y1="174.27360380694188" y2="178.64263932499728" /><path d="M 58.180547188652646 175.14741091055294 a86.0,86.0 0 0,1 -31.652253787137756,-30.449443065178592" fill="none" id="id44" stroke="none" /><text fill="#e1ed5e" style="font-size:6.75px; font-family:Arial;" text-anchor="middle"><textPath startOffset="22.20632615414155" xlink:href="#id44">August</textPath></text><path d="M 86.79598089348748 116.32954008644616 l -1.5379152034467543 1.9019548337257595 a23.445938544306756,23.445938544306756 0 0,0 -0.3116410386676891,-0.25645935840961087 l 1.5704263706591322 -1.8752003564589679" fill="#ff0901" stroke="none" /><path d="M 86.24171649860922 115.8653595955263 l -1.311194244453822 1.5120031641840666 a23.001345526187684,23.001345526187684 0 0,0 -0.2968900284910009,-0.26197093133159954 l 1.3370266258514107 -1.4892090910801783" fill="#ff0300" stroke="none" /><line stroke="#e1ed5e" stroke-width="0.3" x1="26.63291911575756" x2="22.317208475507996" y1="142.92168965132927" y2="145.44649492493687" /><path d="M 25.769776987707644 143.4266507060508 a86.0,86.0 0 0,1 -11.730757126820373,-40.83630448921669" fill="none" id="id45" stroke="none" /><text fill="#e1ed5e" style="font-size:6.75px; font-family:Arial;" text-anchor="middle"><textPath startOffset="21.46611528233685" xlink:href="#id45">September</textPath></text><line stroke="#e1ed5e" stroke-width="0.3" x1="15.007084014347285" x2="10.007500721073583" y1="101.09737516637583" y2="101.16192664675087" /><path d="M 14.007167355692545 101.11028546245083 a86.0,86.0 0 0,1 10.666146001902534,-42.60595125391555" fill="none" id="id46" stroke="none" /><text fill="#e1ed5e" style="font-size:6.75px; font-family:Arial;" text-anchor="middle"><textPath startOffset="22.20632615414155" xlink:href="#id46">October</textPath></text><path d="M 79.00175016825051 100.2711162175752 l -62.994749495248485 0.8133486527256131 a84.0,84.0 0 0,0 -0.006222810841987947,-1.4459620871852985 l 62.99941660337998 0.27112291266336075" fill="#4dd2ff" stroke="none" /><line stroke="#e1ed5e" stroke-width="0.3" x1="26.266209847984243" x2="21.928928074336255" y1="57.711370442889674" y2="55.22380399835377" /><path d="M 25.398753493254645 57.213857153982495 a86.0,86.0 0 0,1 29.58750427330803,-30.492523968695096" fill="none" id="id47" stroke="none" /><text fill="#e1ed5e" style="font-size:6.75px; font-family:Arial;" text-anchor="middle"><textPath startOffset="21.46611528233685" xlink:href="#id47">November</textPath></text><path d="M 85.83668400450813 84.49514656593479 l -1.5199846871000644 -1.6639563646685074 a23.253686808884392,23.253686808884392 0 0,0 0.29785648807020954,-0.26741849591020606 l 1.4911172114338835 1.6898738693479922" fill="#ff0601" stroke="none" /><path d="M 86.93701828274178 83.55741782278169 l -12.307898344961615 -15.492146766041445 a40.78613082667951,40.78613082667951 0 0,0 0.5534628326958211,-0.43198651980106983 l 12.039402957106367 15.701711675065738" fill="#fff517" stroke="none" /><line stroke="#e1ed5e" stroke-width="0.3" x1="56.762969772571076" x2="54.21961505331055" y1="26.818313649435495" y2="22.513508569990535" /><path d="M 56.25429882871897 25.957352633546506 a86.0,86.0 0 0,1 42.265352541879196,-11.944610805530505" fill="none" id="id48" stroke="none" /><text fill="#e1ed5e" style="font-size:6.75px; font-family:Arial;" text-anchor="middle"><textPath startOffset="22.20632615414155" xlink:href="#id48">December</textPath></text><path d="M 91.90106846888425 80.62456947434976 l -1.598291910277671 -3.823664115237623 a25.14426643648969,25.14426643648969 0 0,0 0.40077102684098054,-0.16348456460963484 l 1.53223701384831 3.8506095660308346" fill="#ff2203" stroke="none" /><path d="M 93.59665428221793 80.00007090966166 l -1.23548196980612 -3.858850182006504 a25.051807056720204,25.051807056720204 0 0,0 0.41182143980992386,-0.12795492599299102 l 1.1688751572854674 3.87954524288202" fill="#ff2103" stroke="none" /></svg>