<?xml version="1.0" encoding="utf-8" ?>
<svg baseProfile="full" height="200mm" version="1.1" viewBox="0,0,200,200" width="200mm" xmlns="http://www.w3.org/2000/svg" xmlns:ev="http://www.w3.org/2001/xml-events" xmlns:xlink="http://www.w3.org/1999/xlink"><defs /><rect fill="#1a1a1a" height="200" width="200" x="0" y="0" /><text alignment-baseline="middle" fill="#e1ed5e" style="dominant-baseline: central; font-size:9.0px; font-family:Arial;" text-anchor="middle" x="100.0" y="100.0">2024</text><line stroke="#e1ed5e" stroke-width="0.3" x1="100.0" x2="100.0" y1="15.0" y2="10.0" /><path d="M 100.0 14.0 a86.0,86.0 0 0,1 42.35913384403234,11.155469271406648" fill="none" id="id97" stroke="none" /><text fill="#e1ed5e" style="font-size:6.75px; font-family:Arial;" text-anchor="middle"><textPath startOffset="22.145653131862478" xlink:href="#id97">January</textPath></text><path d="M 100.72087961077811 79.0123766808444 l 0.26279941466502293 -7.651118218658788 a28.655630184918856,28.655630184918856 0 0,0 0.4914771336360413,0.02110614281428221 l -0.39410230890190046 7.645479507418675" fill="#ff4506" stroke="none" /><path d="M 101.08105385017728 79.02784411241856 l 0.3589891198795346 -6.964293020948634 a27.973539307254654,27.973539307254654 0 0,0 0.4793541005028645,0.02883675234501457 l -0.4784875725148614 6.957104290778927" fill="#ff3b05" stroke="none" /><path d="M 101.44090949804482 79.04949213459386 l 0.5138030985128552 -7.470584288097199 a28.488232316749137,28.488232316749137 0 0,0 0.48759780850884865,0.03774315416264939 l -0.6419699017969374 7.460663366939496" fill="#ff4306" stroke="none" /><path d="M 101.80034050326958 79.07731436759882 l 0.8780294990575017 -10.204033709952025 a31.241740074569968,31.241740074569968 0 0,0 0.5339368644464333,0.05056437619514212 l -1.053065926888948 10.1874575782517" fill="#ff6a09" stroke="none" /><path d="M 102.15924093988457 79.11130261209362 l 4.431771677927735 -42.873370804777096 a64.10181578969957,64.10181578969957 0 0,0 1.0935894876023111,0.12253898309522555 l -5.167097067130842 42.790976061174895" fill="#33ff57" stroke="none" /><path d="M 102.51750503828377 79.15144685158666 l 0.90365012363763 -7.483519335108399 a28.53788068258523,28.53788068258523 0 0,0 0.48585358382183674,0.06290347355335212 l -1.0319815293502583 7.46690426535465" fill="#ff4406" stroke="none" /><path d="M 102.87502721639298 79.19773525538626 l 1.0124669320271693 -7.325706360310559 a28.395340625417,28.395340625417 0 0,0 0.48228119613354786,0.07087872756652382 l -1.1380732337683992 7.3072465594451534" fill="#ff4206" stroke="none" /><line stroke="#e1ed5e" stroke-width="0.3" x1="143.13028292997686" x2="145.6673583964461" y1="26.7553504044142" y2="22.446841604673864" /><path d="M 143.63769802327073 25.89364864446614 a86.0,86.0 0 0,1 29.32050498858742,28.57503671076993" fill="none" id="id98" stroke="none" /><text fill="#e1ed5e" style="font-size:6.75px; font-family:Arial;" text-anchor="middle"><textPath startOffset="20.669276256404974" xlink:href="#id98">February</textPath></text><line stroke="#e1ed5e" stroke-width="0.3" x1="172.87174338648825" x2="177.1583165268699" y1="56.24261187166439" y2="53.66864786411523" /><path d="M 173.72905801456457 55.72781907015455 a86.0,86.0 0 0,1 12.242430191666344,42.057860355516425" fill="none" id="id99" stroke="none" /><text fill="#e1ed5e" style="font-size:6.75px; font-family:Arial;" text-anchor="middle"><textPath startOffset="22.145653131862474" xlink:href="#id99">March</textPath></text><line stroke="#e1ed5e" stroke-width="0.3" x1="184.99686870605535" x2="189.99668451229388" y1="99.2704041080226" y2="99.22748670261217" /><path d="M 185.99683186730306 99.26182062694052 a86.0,86.0 0 0,1 -10.086455211305974,41.156179273409016" fill="none" id="id100" stroke="none" /><text fill="#e1ed5e" style="font-size:6.75px; font-family:Arial;" text-anchor="middle"><textPath startOffset="21.40746469413373" xlink:href="#id100">April</textPath></text><line stroke="#e1ed5e" stroke-width="0.3" x1="174.33088141563837" x2="178.70328620479359" y1="141.23008692659167" y2="143.65538615756765" /><path d="M 175.20536237346943 141.71514677278685 a86.0,86.0 0 0,1 -30.301960400862466,31.631185727798858" fill="none" id="id101" stroke="none" /><text fill="#e1ed5e" style="font-size:6.75px; font-family:Arial;" text-anchor="middle"><textPath startOffset="22.145653131862474" xlink:href="#id101">May</textPath></text><path d="M 112.7482090630111 116.68781488649013 l 4.911231240851902 6.428959346915941 a29.090223148060723,29.090223148060723 0 0,0 -0.3994323284124832,0.2997414658040119 l -4.800145923528652 -6.5123198399839675" fill="#ff4c07" stroke="none" /><path d="M 112.16784306229584 117.11559508785304 l 2.848343362857432 4.006551647670829 a25.91584336794693,25.91584336794693 0 0,0 -0.3648024055208148,0.2546604110361093 l -2.779145866162859 -4.05485687451206" fill="#ff1d03" stroke="none" /><path d="M 111.8722381534696 117.32195027204791 l 3.4357892684078477 5.012919222413324 a27.07733552038618,27.07733552038618 0 0,0 -0.3856634077423984,0.25949155234011473 l -3.349229572568446 -5.07116044881056" fill="#ff2e04" stroke="none" /><line stroke="#e1ed5e" stroke-width="0.3" x1="143.1302829299769" x2="145.66735839644613" y1="173.24464959558577" y2="177.55315839532614" /><path d="M 143.63769802327073 174.10635135553383 a86.0,86.0 0 0,1 -40.68552437913181,11.842963189579606" fill="none" id="id102" stroke="none" /><text fill="#e1ed5e" style="font-size:6.75px; font-family:Arial;" text-anchor="middle"><textPath startOffset="21.407464694133747" xlink:href="#id102">June</textPath></text><path d="M 106.0420521117495 120.11202640906438 l 9.710541211756011 32.32323351156854 a54.75034866884488,54.75034866884488 0 0,0 -0.9024421433493656,0.2626877555962784 l -9.154239056025038 -32.48516496146733" fill="#6fff27" stroke="none" /><path d="M 105.69591212413111 120.21278271476187 l 5.772782242561487 20.485567646697287 a42.28340895222013,42.28340895222013 0 0,0 -0.7003312412126941,0.1908783940272204 l -5.420269600414097 -20.58164653486865" fill="#fffd17" stroke="none" /><path d="M 105.3480935250658 120.30758222061773 l 0.7900759405134223 3.0000470349498585 a24.102338183320704,24.102338183320704 0 0,0 -0.40101092295922125,0.10193540847521657 l -0.7384597243288037 -3.013167675260345" fill="#ff0200" stroke="none" /><path d="M 103.94208987418118 120.62667999033965 l 1.123028121448265 5.876157677931479 a26.982509608640566,26.982509608640566 0 0,0 -0.4557028076099841,0.08304423180576033 l -1.0219905802872236 -5.8945700836686035" fill="#ff2d04" stroke="none" /><path d="M 101.44090949804482 120.95050786540614 l 0.9764977061600121 14.198062335779035 a35.23160292661382,35.23160292661382 0 0,0 -0.6037281569794454,0.03631878673461863 l -0.7326251970481016 -14.212733100338344" fill="#ffa10e" stroke="none" /><path d="M 100.72087961077811 120.9876233191556 l 0.11098851044465202 3.2313093825086936 a24.23321492866457,24.23321492866457 0 0,0 -0.4158727627406095,0.010711407165951007 l -0.05550243363329867 -3.2327385070246897" fill="#ff0400" stroke="none" /><line stroke="#e1ed5e" stroke-width="0.3" x1="101.45913802915013" x2="101.54496967792366" y1="184.9874750549273" y2="189.98673829345242" /><path d="M 101.47630435890484 185.9873277026323 a86.0,86.0 0 0,1 -42.54439059252881,-10.42667462771756" fill="none" id="id103" stroke="none" /><text fill="#e1ed5e" style="font-size:6.75px; font-family:Arial;" text-anchor="middle"><textPath startOffset="22.145653131862474" xlink:href="#id103">July</textPath></text><path d="M 100.36049292484886 120.99690560180557 l 0.21714562575257693 12.647644077018954 a33.649508011054664,33.649508011054664 0 0,0 -0.5776385506014277,0.004958332230144315 l -1.5491179496526896e-15 -12.649508011054664" fill="#ff8c0c" stroke="none" /><path d="M 98.19965949673042 120.92268563240118 l -0.5592674215436193 6.499535184677544 a27.523552534138236,27.523552534138236 0 0,0 -0.47039119150941344,-0.04454653489981958 l 0.670758176438048 -6.4889768942725405" fill="#ff3505" stroke="none" /><path d="M 97.48249496171623 120.84855314841334 l -1.5965727181017426 13.221912434122784 a34.31795828420398,34.31795828420398 0 0,0 -0.5842586282871179,-0.0756439766970078 l 1.8233091682796547 -13.192556861225379" fill="#ff950d" stroke="none" /><path d="M 96.41257539226777 120.69131181640829 l -1.0499973394134494 6.056105627802069 a27.146455058639184,27.146455058639184 0 0,0 -0.45847165316745325,-0.0835488077014266 l 1.1538037261319598 -6.037188646169276" fill="#ff2f04" stroke="none" /><path d="M 96.05791012581884 120.62667999033965 l -1.0136430240352667 5.303808626524156 a26.399801674780974,26.399801674780974 0 0,0 -0.4444010796819416,-0.08889266211450299 l 1.1045405892481666 -5.2856265677467915" fill="#ff2403" stroke="none" /><path d="M 95.70440661134978 120.55596938700252 l -3.1360175912242805 15.006979425155489 a36.33114600411555,36.33114600411555 0 0,0 -0.6093902414260467,-0.13281376681271054 l 3.3931702492694633 -14.950934200209058" fill="#ffb010" stroke="none" /><path d="M 95.35216902796893 120.47920084513623 l -3.100307900135699 13.660528653195833 a35.007924620029485,35.007924620029485 0 0,0 -0.5849121482602905,-0.13803767435621989 l 3.3343522021358774 -13.605294835193385" fill="#ff9e0e" stroke="none" /><path d="M 95.00130118170881 120.39639698878247 l -2.7395221964070684 11.178185425582665 a32.50898828191756,32.50898828191756 0 0,0 -0.5408794489666755,-0.13748944083469808 l 2.9310069385991224 -11.129510752912704" fill="#ff7c0b" stroke="none" /><path d="M 94.6519064749342 120.30758222061772 l -3.93641239175749 14.94719902058744 a36.45684641442206,36.45684641442206 0 0,0 -0.6038271069620602,-0.1645757631023825 l 4.192420899654246 -14.877422763340915" fill="#ffb210" stroke="none" /><path d="M 94.30408787586889 120.21278271476187 l -2.3376361795489924 8.29544612586481 a29.61852477719139,29.61852477719139 0 0,0 -0.48819789522152857,-0.14210729222662866 l 2.479694087152128 -8.254095139335666" fill="#ff5307" stroke="none" /><path d="M 93.95794788825049 120.11202640906438 l -3.177583848667858 10.577143179077881 a32.04413857872259,32.04413857872259 0 0,0 -0.525461870530599,-0.16278943068451057 l 3.3586863520700905 -10.521037160586722" fill="#ff750a" stroke="none" /><path d="M 92.93061703081489 119.77432235084164 l -2.86973577622923 8.027161712451523 a29.524711642232695,29.524711642232695 0 0,0 -0.4757848911435943,-0.17471480233536335 l 3.0071098190269434 -7.976716061107441" fill="#ff5207" stroke="none" /><path d="M 92.59220618246901 119.65005319985036 l -4.327277444349734 11.478617532625341 a33.26719163218183,33.26719163218183 0 0,0 -0.5326358369372727,-0.20603498404832424 l 4.523685543780536 -11.402642660438977" fill="#ff860c" stroke="none" /><path d="M 91.92203290615298 119.3841803445677 l -6.054035734540603 14.527481868573062 a36.7384585686405,36.7384585686405 0 0,0 -0.5800563930316913,-0.24759158190001535 l 6.302527202742725 -14.421415637013643" fill="#ffb610" stroke="none" /><path d="M 90.6110303473126 118.78422872680471 l -1.3244019424765792 2.6496910666426263 a23.962246318907575,23.962246318907575 0 0,0 -0.36636309521881616,-0.18706760685913082 l 1.3696922594089778 -2.626565508110659" fill="#ff0000" stroke="none" /><line stroke="#e1ed5e" stroke-width="0.3" x1="58.13341422392154" x2="55.67067388415222" y1="173.97424548756322" y2="178.32567169271397" /><path d="M 57.64086615596768 174.84453072859336 a86.0,86.0 0 0,1 -31.369924170532247,-30.572349798747897" fill="none" id="id104" stroke="none" /><text fill="#e1ed5e" style="font-size:6.75px; font-family:Arial;" text-anchor="middle"><textPath startOffset="22.145653131862474" xlink:href="#id104">August</textPath></text><path d="M 89.03521579738668 117.91015095944536 l -5.436255080584917 8.879714123705423 a31.411637345774146,31.411637345774146 0 0,0 -0.45746692732316363,-0.28549319675730783 l 5.587886136697793 -8.785085130106568" fill="#ff6d0a" stroke="none" /><path d="M 88.72937992617639 117.7192867562869 l -4.1932312135910665 6.592455944957256 a28.813044438427102,28.813044438427102 0 0,0 -0.4150647581448314,-0.2690399615593397 l 4.305781603992908 -6.519502141694022" fill="#ff4806" stroke="none" /><path d="M 87.83215693770417 117.11559508785305 l -3.7252232149536892 5.239992974316631 a27.429215688722657,27.429215688722657 0 0,0 -0.3814215167455087,-0.27611976373513253 l 3.8146257420731517 -5.175272439208433" fill="#ff3404" stroke="none" /><path d="M 87.2517909369889 116.68781488649013 l -5.15893589830905 6.753212694953673 a29.498264605561847,29.498264605561847 0 0,0 -0.39975775034578714,-0.31085404458201976 l 5.274103593290065 -6.663657598750859" fill="#ff5107" stroke="none" /><path d="M 86.96720088162412 116.46651593811092 l -8.54700299154847 10.798859071262449 a34.771950383969795,34.771950383969795 0 0,0 -0.4648665849306941,-0.374463614641221 l 8.731120346834427 -10.650547162827817" fill="#ff9b0e" stroke="none" /><path d="M 86.68645165197938 116.24036423190432 l -12.551301773625964 15.310547350702183 a40.79767755042798,40.79767755042798 0 0,0 -0.5378021072640775,-0.44865364547445513 l 12.812278215051935 -15.092831521315858" fill="#ffea16" stroke="none" /><path d="M 84.83555147118756 114.52719865689866 l -4.593722044733007 4.400681804657568 a27.361468585956406,27.361468585956406 0 0,0 -0.322010825782281,-0.3419643380402292 l 4.668588704251541 -4.321176006672848" fill="#ff3304" stroke="none" /><path d="M 84.1078160697243 113.72728997021213 l -8.976309950341294 7.753522743723845 a32.86133446379618,32.86133446379618 0 0,0 -0.3650822848007022,-0.43006601350887874 l 9.108086798649108 -7.598289947765413" fill="#ff810b" stroke="none" /><path d="M 83.64595745247003 113.17365903436017 l -3.315864522202992 2.671025741352944 a25.257855803168365,25.257855803168365 0 0,0 -0.26909667777064783,-0.3399948616683116 l 3.3612276306152014 -2.613710935769952" fill="#ff1302" stroke="none" /><path d="M 83.4222238831116 112.89097897827486 l -3.557669051071143 2.766464972481802 a25.506699182430328,25.506699182430328 0 0,0 -0.2658138419187474,-0.3479588518105943 l 3.6046348703441855 -2.704985207430337" fill="#ff1702" stroke="none" /><path d="M 83.20337586046588 112.60449989151573 l -9.652442282403825 7.2433726379017145 a33.06797784165352,33.06797784165352 0 0,0 -0.3368177941322064,-0.456958025470683 l 9.775362096119864 -7.0766083031621525" fill="#ff840c" stroke="none" /><path d="M 82.78059297857968 112.02048342749411 l -6.9562844785306694 4.856026818292567 a29.483565889779094,29.483565889779094 0 0,0 -0.2861453963627897,-0.41749468485208413 l 7.038619611708785 -4.735897398370432" fill="#ff5107" stroke="none" /><path d="M 82.37810715431573 111.42229804090323 l -4.584139600166825 2.9713839048247355 a26.462916637078507,26.462916637078507 0 0,0 -0.2438145808215996,-0.3833170175770261 l 4.634471872614315 -2.8922532125690377" fill="#ff2503" stroke="none" /><path d="M 81.99639281039703 110.81064883170644 l -6.190467859819798 3.717198083233289 a28.220765465894537,28.220765465894537 0 0,0 -0.24582475828447617,-0.4174641819924581 l 6.253366328234045 -3.6103827329472717" fill="#ff3f05" stroke="none" /><line stroke="#e1ed5e" stroke-width="0.3" x1="26.387840678322732" x2="22.057713659400548" y1="142.50000000000003" y2="145.00000000000006" /><path d="M 25.521815274538298 143.00000000000003 a86.0,86.0 0 0,1 -11.493303480769221,-40.785679425670985" fill="none" id="id105" stroke="none" /><text fill="#e1ed5e" style="font-size:6.75px; font-family:Arial;" text-anchor="middle"><textPath startOffset="21.40746469413373" xlink:href="#id105">September</textPath></text><path d="M 81.81346652052679 110.50000000000001 l -16.33173264810024 9.429130240713684 a39.85826048142735,39.85826048142735 0 0,0 -0.33702367570421105,-0.5954885419844552 l 16.491189688825827 -9.147384928630107" fill="#ffde14" stroke="none" /><path d="M 81.29705330413844 109.54985784667822 l -5.303795508814987 2.7081557778401346 a26.955195590102388,26.955195590102388 0 0,0 -0.20688765545749083,-0.4139138994611102 l 5.349503077484215 -2.6167100222152717" fill="#ff2d04" stroke="none" /><path d="M 80.9802524753101 108.90220220490708 l -10.720940562171874 5.017941515120099 a32.83715774951014,32.83715774951014 0 0,0 -0.2345754186872241,-0.5125896239544636 l 10.805500445714154 -4.833162908950946" fill="#ff810b" stroke="none" /><path d="M 80.68587082218212 108.24405325689762 l -18.455028295133495 7.87735417537589 a41.065910848463616,41.065910848463616 0 0,0 -0.27118002405955566,-0.6507333381214905 l 18.587534163729536 -7.559388327813118" fill="#ffee16" stroke="none" /><path d="M 80.5471966667186 107.91128576633889 l -7.904821011244481 3.2148218886643125 a29.533538245982577,29.533538245982577 0 0,0 -0.1869632241599793,-0.4712694583006203 l 7.958842910370584 -3.078651413150127" fill="#ff5207" stroke="none" /><path d="M 80.05021161711548 106.5578916946017 l -3.716657026337636 1.2217389867460076 a24.912312053397592,24.912312053397592 0 0,0 -0.13006040060095073,-0.407412352451425 l 3.737082142715842 -1.1577576006031909" fill="#ff0e01" stroke="none" /><path d="M 79.94057633289273 106.21446072829308 l -8.233401509230509 2.5507288339137304 a29.619461583901753,29.619461583901753 0 0,0 -0.14629712166635284,-0.4869755374671631 l 8.275974950900492 -2.409015692855844" fill="#ff5307" stroke="none" /><path d="M 79.73907114497094 105.5222062557868 l -60.78278656508718 16.566618767360406 a84.0,84.0 0 0,0 -0.36724207678106957,-1.3944779825087894 l 61.05821812267298 -15.520760280478815" fill="#4dd2ff" stroke="none" /><path d="M 79.64726062577567 105.17358676015961 l -19.156212369389575 4.869434274513066 a40.76542087826507,40.76542087826507 0 0,0 -0.16658007610325024,-0.6797035560916135 l 19.236979972009117 -4.539874893813352" fill="#ffea16" stroke="none" /><path d="M 79.48165901384964 104.47187691870673 l -8.495484994141185 1.8515514136431719 a29.69491276109439,29.69491276109439 0 0,0 -0.10427480208922965,-0.49899267590024665 l 8.526017507054782 -1.705442286457516" fill="#ff5407" stroke="none" /><path d="M 79.34024301695615 103.76489593502545 l -8.389908892753253 1.528920882829612 a29.52808127861435,29.52808127861435 0 0,0 -0.08659487022131447,-0.4994561997452777 l 8.414918580466802 -1.3846716501637415" fill="#ff5207" stroke="none" /><path d="M 79.2786578344484 103.40968896794605 l -8.200984191949088 1.3494688279447342 a29.31126992908986,29.31126992908986 0 0,0 -0.07743550091420831,-0.4971914643494818 l 8.222941185001565 -1.2084891816638024" fill="#ff4f07" stroke="none" /><path d="M 79.13060592940153 102.33845913500099 l -14.357046411762841 1.608736996371122 a35.44689642771088,35.44689642771088 0 0,0 -0.06256817354882953,-0.6052903218134493 l 14.382546977793337 -1.3620421522747412" fill="#ffa40f" stroke="none" /><path d="M 79.0935383218832 101.97986365728391 l -7.001878083500876 0.6630851343327285 a28.033205427938455,28.033205427938455 0 0,0 -0.041257372568933644,-0.47947320782427816 l 7.01222907876755 -0.5427908791327883" fill="#ff3c05" stroke="none" /><path d="M 79.06263194458094 101.62068470465958 l -3.9963034025393984 0.30933915774567916 a25.008257925790552,25.008257925790552 0 0,0 -0.02945739234506662,-0.42830401968832543 l 4.001024756049532 -0.24069171390301036" fill="#ff1001" stroke="none" /><path d="M 79.03789590574601 101.26102812881392 l -7.295656479312562 0.43888857708222695 a28.308845780780207,28.308845780780207 0 0,0 -0.02501748485763284,-0.48533252276328565 l 7.302115553626767 -0.3135842609422105" fill="#ff4006" stroke="none" /><path d="M 79.01933749520258 100.90099992219065 l -18.92289258974062 0.8126304279991052 a39.94033347582271,39.94033347582271 0 0,0 -0.023536863248265268,-0.6852500925028044 l 18.934054139985733 -0.4876740709321809" fill="#ffe014" stroke="none" /><line stroke="#e1ed5e" stroke-width="0.3" x1="15.003131293944662" x2="10.003315487706104" y1="100.72959589197737" y2="100.7725132973878" /><path d="M 14.003168132696942 100.73817937305945 a86.0,86.0 0 0,1 10.791469493833604,-42.45332614584628" fill="none" id="id106" stroke="none" /><text fill="#e1ed5e" style="font-size:6.75px; font-family:Arial;" text-anchor="middle"><textPath startOffset="22.145653131862435" xlink:href="#id106">October</textPath></text><path d="M 79.00077361379809 100.18025310272382 l -8.736321487898584 0.07499081278638159 a29.736643334938247,29.736643334938247 0 0,0 0.0,-0.5104878310203951 l 8.736321487898584 0.07499081278637838" fill="#ff5507" stroke="none" /><path d="M 79.06263194458094 98.37931529534042 l -9.786399997505201 -0.7575292533261931 a30.815674988548405,30.815674988548405 0 0,0 0.04535242276284748,-0.5270638984189643 l 9.77195395204461 0.9254141991208381" fill="#ff6409" stroke="none" /><path d="M 79.13060592940154 97.66154086499901 l -11.13999068693382 -1.2482591922679303 a32.20970755711556,32.20970755711556 0 0,0 0.06628744584784427,-0.5489551428161256 l 11.116921154826308 1.439308012007492" fill="#ff780b" stroke="none" /><path d="M 79.17382384314186 97.30363454192245 l -8.719005617036094 -1.128849837699011 a29.79177802870273,29.79177802870273 0 0,0 0.07001845748983616,-0.5066186787408622 l 8.69834264299105 1.2783568246399402" fill="#ff5607" stroke="none" /><path d="M 79.22317932658666 96.9465228501225 l -6.564988328142456 -0.9648272064477574 a27.63550776406361,27.63550776406361 0 0,0 0.07300841594055105,-0.46876640304212513 l 6.547458420063637 1.0773817914213326" fill="#ff3705" stroke="none" /><path d="M 79.2786578344484 96.59031103205396 l -14.412584938260744 -2.371585366959009 a35.6064034503828,35.6064034503828 0 0,0 0.10442032642556963,-0.6022686942007723 l 14.36974979434294 2.6186470940803743" fill="#ffa60f" stroke="none" /><path d="M 79.34024301695615 96.23510406497455 l -12.292896192507387 -2.2401751841924185 a33.49534639998564,33.49534639998564 0 0,0 0.10794068010383133,-0.5647912496931199 l 12.252629220121396 2.4508689989188532" fill="#ff8a0c" stroke="none" /><path d="M 80.68587082218212 91.75594674310238 l -3.706760133130937 -1.5821954832513376 a25.030311803296343,25.030311803296343 0 0,0 0.17207280699745356,-0.39373625685550495 l 3.679053444116506 1.6455938098827094" fill="#ff1001" stroke="none" /><path d="M 80.83023694016515 91.42560881287825 l -6.514908406840125 -2.9140356640900786 a28.136920582513515,28.136920582513515 0 0,0 0.20099881897699118,-0.43921869397612934 l 6.463925123008087 3.0254433402808796" fill="#ff3e05" stroke="none" /><path d="M 80.9802524753101 91.09779779509293 l -10.661237359863744 -4.98999740184848 a32.77123851231505,32.77123851231505 0 0,0 0.24285164070759085,-0.5074665264784755 l 10.574006461196248 5.172276430392043" fill="#ff800b" stroke="none" /><line stroke="#e1ed5e" stroke-width="0.3" x1="26.387840678322718" x2="22.05771365940052" y1="57.49999999999999" y2="54.99999999999999" /><path d="M 25.521815274538284 56.99999999999999 a86.0,86.0 0 0,1 29.574782752854787,-30.34633250058573" fill="none" id="id107" stroke="none" /><text fill="#e1ed5e" style="font-size:6.75px; font-family:Arial;" text-anchor="middle"><textPath startOffset="21.40746469413373" xlink:href="#id107">November</textPath></text><path d="M 81.81346652052679 89.5 l -4.816543835659626 -2.7808328800817184 a26.561665760163436,26.561665760163436 0 0,0 0.23137271287045577,-0.39292144936054196 l 4.768097412659391 2.8631054977358334" fill="#ff2703" stroke="none" /><path d="M 81.99639281039701 89.18935116829357 l -16.151946551570372 -9.698779821099256 a39.84016208589905,39.84016208589905 0 0,0 0.3571045145645645,-0.5833033870950554 l 15.983074072550416 9.974620324318854" fill="#ffde14" stroke="none" /><path d="M 82.576782715395 88.27688183743585 l -2.8864384239840777 -1.9421245893104826 a24.478990470791217,24.478990470791217 0 0,0 0.2375747376355902,-0.34662864221737744 l 2.852673949533174 1.9913879665978946" fill="#ff0801" stroke="none" /><path d="M 83.64595745247003 86.82634096563983 l -14.704450009335176 -11.844864054119324 a39.88178102133391,39.88178102133391 0 0,0 0.43405275746925276,-0.5294737881213449 l 14.498950432627293 12.095540123939161" fill="#ffdf14" stroke="none" /><path d="M 83.8745106332314 86.54754324733833 l -4.12722227484984 -3.443075611426567 a26.374824031725794,26.374824031725794 0 0,0 0.29301856348308725,-0.3451751309983788 l 4.067509147859639 3.5134175248745025" fill="#ff2403" stroke="none" /><path d="M 84.10781606972428 86.27271002978789 l -9.306532891608523 -8.038761455374775 a33.29769247456654,33.29769247456654 0 0,0 0.37735630498362244,-0.4293622047298898 l 9.167165522666307 8.197335937915966" fill="#ff870c" stroke="none" /><path d="M 84.34580500576568 86.00192230759919 l -8.55226073606045 -7.647484286041934 a32.472801732916835,32.472801732916835 0 0,0 0.37514173145294605,-0.41234647802548074 l 8.41972130376564 7.793168339625072" fill="#ff7b0b" stroke="none" /><path d="M 84.83555147118756 85.47280134310135 l -5.786385441819107 -5.54322635992852 a29.013090225294015,29.013090225294015 0 0,0 0.347622687623172,-0.3566915013886884 l 5.690375953045132 5.641740553384938" fill="#ff4a06" stroke="none" /><path d="M 85.08716467003674 85.21462403516908 l -23.109593440444474 -22.91207673465298 a53.542534770316536,53.542534770316536 0 0,0 0.6527295960915575,-0.6471507441777448 l 22.71287192422294 23.305407489059398" fill="#7cff26" stroke="none" /><path d="M 85.34317274990677 84.96080404539775 l -6.268372280859014 -6.431902173619198 a29.981194609986414,29.981194609986414 0 0,0 0.3716633268384008,-0.356045059746604 l 6.1570364681553125 6.538559363671371" fill="#ff5808" stroke="none" /><path d="M 85.60350026404147 84.71141617570332 l -4.751934393358202 -5.046389652545508 a27.931589212013286,27.931589212013286 0 0,0 0.3518984259708129,-0.32571192954012934 l 4.664606196073437 5.127219328218003" fill="#ff3b05" stroke="none" /><path d="M 86.13680546590413 84.22622945171909 l -4.551667610038093 -5.178962202124611 a27.894876904144503,27.894876904144503 0 0,0 0.36239499185428586,-0.31302816269696565 l 4.462093138420959 5.2563344972862875" fill="#ff3a05" stroke="none" /><path d="M 86.40962598614128 83.9905735841838 l -6.524622934397799 -7.6859894107896025 a31.081921327745007,31.081921327745007 0 0,0 0.4097273127181035,-0.34180909672629206 l 6.391721287517786 7.796860691427777" fill="#ff6809" stroke="none" /><path d="M 87.25179093698888 83.31218511350988 l -4.1807516787334436 -5.472738151393903 a27.886911315891535,27.886911315891535 0 0,0 0.38290988221182104,-0.2873427141492929 l 4.08618880761087 5.543699892807197" fill="#ff3a05" stroke="none" /><path d="M 88.72937992617638 82.28071324371311 l -3.531249832589413 -5.551711261837809 a27.579606623118096,27.579606623118096 0 0,0 0.4016587152008915,-0.25066474483549195 l 3.435426988598823 5.611511803514837" fill="#ff3605" stroke="none" /><line stroke="#e1ed5e" stroke-width="0.3" x1="56.869717070023135" x2="54.33264160355391" y1="26.7553504044142" y2="22.446841604673864" /><path d="M 56.362301976729285 25.89364864446614 a86.0,86.0 0 0,1 42.16139366436587,-11.88097634709845" fill="none" id="id108" stroke="none" /><text fill="#e1ed5e" style="font-size:6.75px; font-family:Arial;" text-anchor="middle"><textPath startOffset="22.145653131862474" xlink:href="#id108">December</textPath></text><path d="M 89.34428304082924 81.90426304109057 l -14.419991054023384 -24.488297320891032 a49.418530005517056,49.418530005517056 0 0,0 0.7347065378566318,-0.42418301740690206 l 13.997492048306352 24.732227235574108" fill="#abff21" stroke="none" /></svg>