<?xml version="1.0" encoding="utf-8" ?>
<svg baseProfile="full" height="200mm" version="1.1" viewBox="0,0,200,200" width="200mm" xmlns="http://www.w3.org/2000/svg" xmlns:ev="http://www.w3.org/2001/xml-events" xmlns:xlink="http://www.w3.org/1999/xlink"><defs /><rect fill="#1a1a1a" height="200" width="200" x="0" y="0" /><text alignment-baseline="middle" fill="#e1ed5e" style="dominant-baseline: central; font-size:9.0px; font-family:Arial;" text-anchor="middle" x="100.0" y="100.0">2025</text><line stroke="#e1ed5e" stroke-width="0.3" x1="100.0" x2="100.0" y1="15.0" y2="10.0" /><path d="M 100.0 14.0 a86.0,86.0 0 0,1 42.46469731375804,11.215312516191453" fill="none" id="id109" stroke="none" /><text fill="#e1ed5e" style="font-size:6.75px; font-family:Arial;" text-anchor="middle"><textPath startOffset="22.20632615414155" xlink:href="#id109">January</textPath></text><line stroke="#e1ed5e" stroke-width="0.3" x1="143.23703022742887" x2="145.7803849466894" y1="26.81831364943548" y2="22.513508569990506" /><path d="M 143.74570117128098 25.957352633546492 a86.0,86.0 0 0,1 28.547481713284135,27.462654790039103" fill="none" id="id110" stroke="none" /><text fill="#e1ed5e" style="font-size:6.75px; font-family:Arial;" text-anchor="middle"><textPath startOffset="19.985693538727396" xlink:href="#id110">February</textPath></text><path d="M 113.06298171725822 83.55741782278167 l 25.422712448964365 -31.99997119016291 a61.86945637556223,61.86945637556223 0 0,0 0.8281568533253818,0.6696452476070579 l -25.96977270085424 31.557619845291725" fill="#31ff3c" stroke="none" /><line stroke="#e1ed5e" stroke-width="0.3" x1="172.23445277983987" x2="176.4835382374775" y1="55.19839476539836" y2="52.563006222186495" /><path d="M 173.08426987136738 54.67131705675599 a86.0,86.0 0 0,1 12.851231095245387,41.99856678651699" fill="none" id="id111" stroke="none" /><text fill="#e1ed5e" style="font-size:6.75px; font-family:Arial;" text-anchor="middle"><textPath startOffset="22.20632615414155" xlink:href="#id111">March</textPath></text><path d="M 120.08093135843002 93.85539295169968 l 15.314342108310367 -4.686068229564589 a37.01525240708065,37.01525240708065 0 0,0 0.18118807925570277,0.6108761298311394 l -15.392736084677772 4.4217627129869195" fill="#ffba11" stroke="none" /><line stroke="#e1ed5e" stroke-width="0.3" x1="184.98032266829074" x2="189.97916517819016" y1="98.17113171792111" y2="98.06355123074" /><path d="M 185.9800911702706 98.14961562048488 a86.0,86.0 0 0,1 -9.607161424134198,41.387399972396054" fill="none" id="id112" stroke="none" /><text fill="#e1ed5e" style="font-size:6.75px; font-family:Arial;" text-anchor="middle"><textPath startOffset="21.466115282336823" xlink:href="#id112">April</textPath></text><path d="M 119.26925614724726 108.34839909993367 l 57.80776844174181 25.045197299801014 a84.0,84.0 0 0,0 -0.5862356610749084,1.3218066540292492 l -57.368091695935625 -26.036552290322952" fill="#4dd2ff" stroke="none" /><path d="M 118.64920377521936 109.65438752849418 l 47.616385064314834 24.65022312254136 a74.61859403774196,74.61859403774196 0 0,0 -0.6003154429743549,1.1355705833259824 l -47.185017113115585 -25.466208720953475" fill="#41ffcf" stroke="none" /><line stroke="#e1ed5e" stroke-width="0.3" x1="174.80103733775053" x2="179.2010983576182" y1="140.37084112569926" y2="142.7455964860345" /><path d="M 175.68104954172406 140.8457921977663 a86.0,86.0 0 0,1 -30.038265399797805,32.042727171017184" fill="none" id="id113" stroke="none" /><text fill="#e1ed5e" style="font-size:6.75px; font-family:Arial;" text-anchor="middle"><textPath startOffset="22.206326154141568" xlink:href="#id113">May</textPath></text><path d="M 118.48025628344425 109.97397251340804 l 3.522422210434083 1.9010852321870373 a25.0026970018475,25.0026970018475 0 0,0 -0.20766953259324847,0.3769805233500823 l -3.489176268389325 -1.9614362739349247" fill="#ff1001" stroke="none" /><path d="M 117.75023020441432 111.22182372390056 l 2.4785706376061327 1.5669702568440318 a23.932355399919512,23.932355399919512 0 0,0 -0.22313518072553468,0.34631075566851033 l -2.4512305935035474 -1.609402612433995" fill="#ff0000" stroke="none" /><path d="M 116.0416608686014 113.55231037782055 l 3.5271137852944543 2.9797750462211017 a25.617314260530264,25.617314260530264 0 0,0 -0.28747199953206015,0.33439488079939583 l -3.4752992761916155 -3.0400470261820254" fill="#ff1902" stroke="none" /><path d="M 111.1453310114006 117.79835938074945 l 18.91672355414919 30.20876129911596 a56.64283503386156,56.64283503386156 0 0,0 -0.8308176840586805,0.5103560790449619 l -18.3939266701582 -30.529905844989297" fill="#5bff2a" stroke="none" /><line stroke="#e1ed5e" stroke-width="0.3" x1="143.8653032363475" x2="146.44561519142675" y1="172.8068346515853" y2="177.08958963109032" /><path d="M 144.38136562736335 173.6633856474863 a86.0,86.0 0 0,1 -40.68145358897372,12.25698825130547" fill="none" id="id114" stroke="none" /><text fill="#e1ed5e" style="font-size:6.75px; font-family:Arial;" text-anchor="middle"><textPath startOffset="21.466115282336833" xlink:href="#id114">June</textPath></text><path d="M 110.8373102113329 117.98757091392108 l 23.08209652941328 38.311245140017775 a65.72733710351744,65.72733710351744 0 0,0 -0.9741170980172832,0.5755255517107046 l -22.419211560367614 -38.702889264022225" fill="#36ff6b" stroke="none" /><path d="M 104.13013068566511 120.58985236759428 l 2.589848376153691 12.911115840604689 a34.168303871834794,34.168303871834794 0 0,0 -0.5776597347455418,0.1107098630057392 l -2.367221026836445 -12.953782901958895" fill="#ff930d" stroke="none" /><path d="M 103.7750983002368 120.6578951692458 l 2.0251811348176822 11.082090121778705 a32.26561494531242,32.26561494531242 0 0,0 -0.5472110451838007,0.0951396543956006 l -1.8341211181618315 -11.115308354695312" fill="#ff790b" stroke="none" /><path d="M 101.62511606390274 120.93702456842531 l 0.7474034406138305 9.629099450950957 a30.658062338758505,30.658062338758505 0 0,0 -0.5264970934151103,0.03631032210894544 l -0.5815435864197898 -9.640538117576188" fill="#ff6209" stroke="none" /><line stroke="#e1ed5e" stroke-width="0.3" x1="102.19456741930631" x2="102.32365962044197" y1="184.97166512339345" y2="189.96999836594603" /><path d="M 102.22038585953345 185.97133177190398 a86.0,86.0 0 0,1 -42.740103519485714,-10.115201625700543" fill="none" id="id115" stroke="none" /><text fill="#e1ed5e" style="font-size:6.75px; font-family:Arial;" text-anchor="middle"><textPath startOffset="22.20632615414155" xlink:href="#id115">July</textPath></text><path d="M 96.22490169976321 120.6578951692458 l -0.7051672804709546 3.8587794537263815 a24.92268272562894,24.92268272562894 0 0,0 -0.42135045235013574,-0.08075281701542998 l 0.7714853473927854 -3.8460694383624836" fill="#ff0f01" stroke="none" /><path d="M 92.06813273071674 119.44442032107085 l -2.3199373987745684 5.6871649977093846 a27.142145817660445,27.142145817660445 0 0,0 -0.4310800133653022,-0.18019148054832124 l 2.417488871637333 -5.646388474141091" fill="#ff3004" stroke="none" /><line stroke="#e1ed5e" stroke-width="0.3" x1="58.666819895761336" x2="56.23545636021788" y1="174.27360380694188" y2="178.64263932499728" /><path d="M 58.180547188652646 175.14741091055294 a86.0,86.0 0 0,1 -31.652253787137756,-30.449443065178592" fill="none" id="id116" stroke="none" /><text fill="#e1ed5e" style="font-size:6.75px; font-family:Arial;" text-anchor="middle"><textPath startOffset="22.20632615414155" xlink:href="#id116">August</textPath></text><path d="M 84.43433777217949 114.09645910891817 l -5.980786897157199 5.416275690747452 a29.06881988071298,29.06881988071298 0 0,0 -0.33268731473789576,-0.3737777249020379 l 6.073133061543433 -5.31252379610455" fill="#ff4c07" stroke="none" /><line stroke="#e1ed5e" stroke-width="0.3" x1="26.63291911575756" x2="22.317208475507996" y1="142.92168965132927" y2="145.44649492493687" /><path d="M 25.769776987707644 143.4266507060508 a86.0,86.0 0 0,1 -11.730757126820373,-40.83630448921669" fill="none" id="id117" stroke="none" /><text fill="#e1ed5e" style="font-size:6.75px; font-family:Arial;" text-anchor="middle"><textPath startOffset="21.46611528233685" xlink:href="#id117">September</textPath></text><path d="M 81.02952815118164 109.00673069616217 l -21.093466777084952 10.014678402502758 a44.350120431842356,44.350120431842356 0 0,0 -0.32148638456843015,-0.6924530715889707 l 21.262727778493208 -9.650105263634961" fill="#e7ff1a" stroke="none" /><line stroke="#e1ed5e" stroke-width="0.3" x1="15.007084014347285" x2="10.007500721073583" y1="101.09737516637583" y2="101.16192664675087" /><path d="M 14.007167355692545 101.11028546245083 a86.0,86.0 0 0,1 10.666146001902534,-42.60595125391555" fill="none" id="id118" stroke="none" /><text fill="#e1ed5e" style="font-size:6.75px; font-family:Arial;" text-anchor="middle"><textPath startOffset="22.20632615414155" xlink:href="#id118">October</textPath></text><path d="M 79.00019446554 99.90962569577889 l -6.05573088632556 -0.02606131111566475 a27.05578696451043,27.05578696451043 0 0,0 0.00601281738990355,-0.46569933320526874 l 6.054385061817942 0.13029690238140545" fill="#ff2e04" stroke="none" /><path d="M 79.00486145842228 99.54816195383935 l -13.687992042077477 -0.2945803652548809 a34.69116151886209,34.69116151886209 0 0,0 0.01798704601456851,-0.596902489393626 l 13.680893301607265 0.5301530020735014" fill="#ff9a0e" stroke="none" /><path d="M 79.3925641242962 95.95851677861259 l -3.48755723767182 -0.683971753919021 a24.553993928835016,24.553993928835016 0 0,0 0.08491087272433083,-0.41405557088649997 l 3.475267069032494 0.7439029809689234" fill="#ff0901" stroke="none" /><path d="M 80.2630227832202 92.82701384747504 l -5.473375613901177 -1.9891823887146627 a26.82363178664488,26.82363178664488 0 0,0 0.1614468560739906,-0.4325973079514729 l 5.438324169325559 2.083102833695477" fill="#ff2b04" stroke="none" /><path d="M 80.803312248108 91.48605970444005 l -9.928166090032603 -4.403249895368507 a31.860805290232214,31.860805290232214 0 0,0 0.2266633566686896,-0.499422661052979 l 9.850900416400561 4.573494565263557" fill="#ff730a" stroke="none" /><path d="M 81.10775173730289 90.83032412892265 l -3.540678903631033 -1.7185290738511072 a24.935701878482337,24.935701878482337 0 0,0 0.1907462298455697,-0.3845327598759494 l 3.5105726608320507 1.779221422226018" fill="#ff0f01" stroke="none" /><path d="M 81.43458229118936 90.18545643968196 l -22.4410488734538 -11.863382508394329 a46.383863360040735,46.383863360040735 0 0,0 0.3792254126607654,-0.7026470953017669 l 22.23351536157456 12.247910587028569" fill="#ceff1d" stroke="none" /><line stroke="#e1ed5e" stroke-width="0.3" x1="26.266209847984243" x2="21.928928074336255" y1="57.711370442889674" y2="55.22380399835377" /><path d="M 25.398753493254645 57.213857153982495 a86.0,86.0 0 0,1 29.58750427330803,-30.492523968695096" fill="none" id="id119" stroke="none" /><text fill="#e1ed5e" style="font-size:6.75px; font-family:Arial;" text-anchor="middle"><textPath startOffset="21.46611528233685" xlink:href="#id119">November</textPath></text><path d="M 82.7489923806493 88.02491185347247 l -22.23789069121195 -15.436820103272899 a48.07063348529364,48.07063348529364 0 0,0 0.4777016460197093,-0.6756751008153405 l 21.968876425388363 15.817321704420026" fill="#baff1f" stroke="none" /><path d="M 84.31358615837235 86.03803664274999 l -11.969273801964532 -10.653458714218216 a37.02372297320278,37.02372297320278 0 0,0 0.4278115155960707,-0.47240016074160907 l 11.784118645752416 10.857911662229382" fill="#ffba11" stroke="none" /><path d="M 86.10567301691215 84.25364557470407 l -17.38709214275597 -19.70468347537541 a47.27899396943154,47.27899396943154 0 0,0 0.6148660212758834,-0.5332057546600572 l 17.045332322833314 20.00105422345515" fill="#c4ff1e" stroke="none" /><path d="M 88.09926311788651 82.69761687909137 l -13.224787161764752 -19.22740889341389 a44.33641463953941,44.33641463953941 0 0,0 0.6325229377548184,-0.42708231109361344 l 12.891859529603394 19.45220311680617" fill="#e7ff1a" stroke="none" /><line stroke="#e1ed5e" stroke-width="0.3" x1="56.762969772571076" x2="54.21961505331055" y1="26.818313649435495" y2="22.513508569990535" /><path d="M 56.25429882871897 25.957352633546506 a86.0,86.0 0 0,1 42.265352541879196,-11.944610805530505" fill="none" id="id120" stroke="none" /><text fill="#e1ed5e" style="font-size:6.75px; font-family:Arial;" text-anchor="middle"><textPath startOffset="22.20632615414155" xlink:href="#id120">December</textPath></text><path d="M 95.692805502759 79.44645832069477 l -5.878902795867887 -28.05359119975992 a49.66296351193488,49.66296351193488 0 0,0 0.8382010701922702,-0.1681352492943051 l 5.3951353162084805 28.150630405131437" fill="#a8ff21" stroke="none" /><path d="M 98.91598698831166 79.02799685794201 l -0.4267758606907207 -8.256676437324531 a29.267698798694738,29.267698798694738 0 0,0 0.5033475112388843,-0.021675202653565005 l 0.28458751706251234 8.262799366502287" fill="#ff4f07" stroke="none" /><path d="M 99.63851952072746 79.00311137660856 l -0.15618043791200828 -9.071868186604027 a30.07321248094106,30.07321248094106 0 0,0 0.5176609171845418,-0.004455670945591459 l 2.2222961245536567e-15 9.07321248094106" fill="#ff5a08" stroke="none" /></svg>