<?xml version="1.0" encoding="utf-8" ?>
<svg baseProfile="full" height="200mm" version="1.1" viewBox="0,0,200,200" width="200mm" xmlns="http://www.w3.org/2000/svg" xmlns:ev="http://www.w3.org/2001/xml-events" xmlns:xlink="http://www.w3.org/1999/xlink"><defs /><rect fill="#1a1a1a" height="200" width="200" x="0" y="0" /><text alignment-baseline="middle" fill="#e1ed5e" style="dominant-baseline: central; font-size:9.0px; font-family:Arial;" text-anchor="middle" x="100.0" y="100.0">2026</text><line stroke="#e1ed5e" stroke-width="0.3" x1="100.0" x2="100.0" y1="15.0" y2="10.0" /><path d="M 100.0 14.0 a86.0,86.0 0 0,1 42.46469731375804,11.215312516191453" fill="none" id="id121" stroke="none" /><text fill="#e1ed5e" style="font-size:6.75px; font-family:Arial;" text-anchor="middle"><textPath startOffset="22.20632615414155" xlink:href="#id121">January</textPath></text><path d="M 100.72285384407766 79.0124445844662 l 0.24185684500145177 -7.0221442116987545 a28.026307996620158,28.026307996620158 0 0,0 0.4819980032028361,0.02075584792764685 l -0.3626956805936194 7.016940637246913" fill="red" stroke="none" /><line stroke="#e1ed5e" stroke-width="0.3" x1="143.23703022742887" x2="145.7803849466894" y1="26.81831364943548" y2="22.513508569990506" /><path d="M 143.74570117128098 25.957352633546492 a86.0,86.0 0 0,1 28.547481713284135,27.462654790039103" fill="none" id="id122" stroke="none" /><text fill="#e1ed5e" style="font-size:6.75px; font-family:Arial;" text-anchor="middle"><textPath startOffset="19.985693538727396" xlink:href="#id122">February</textPath></text><path d="M 117.45458315368197 88.32363383020206 l 6.657963979305019 -4.453891833635185 a29.01034561148552,29.01034561148552 0 0,0 0.27408334184515165,0.417447733407404 l -6.733643956508096 4.3386260362501075" fill="red" stroke="none" /><line stroke="#e1ed5e" stroke-width="0.3" x1="172.23445277983987" x2="176.4835382374775" y1="55.19839476539836" y2="52.563006222186495" /><path d="M 173.08426987136738 54.67131705675599 a86.0,86.0 0 0,1 12.851231095245387,41.99856678651699" fill="none" id="id123" stroke="none" /><text fill="#e1ed5e" style="font-size:6.75px; font-family:Arial;" text-anchor="middle"><textPath startOffset="22.20632615414155" xlink:href="#id123">March</textPath></text><path d="M 118.03404312379186 89.2402003453031 l 15.279483205584437 -9.116323887597906 a38.792413221744965,38.792413221744965 0 0,0 0.337199035122805,0.576382455698066 l -15.43414191517757 8.851962019545944" fill="red" stroke="none" /><path d="M 118.56541770881063 90.18545643968196 l 51.21724603337711 -27.075819144944482 a78.93363680637722,78.93363680637722 0 0,0 0.6246678973135873,1.2066595498115205 l -51.675723363850814 26.190186872872616" fill="red" stroke="none" /><path d="M 120.53481517161879 95.60439243477599 l 53.12466699155999 -11.371672263739171 a75.32812506462963,75.32812506462963 0 0,0 0.2604943561712654,1.2702629933786866 l -53.31254064364625 10.455533614197073" fill="red" stroke="none" /><path d="M 120.73433829027371 96.67025291283417 l 62.20301487082114 -9.98924126149749 a84.0,84.0 0 0,0 0.21697642624280045,1.4296035504316715 l -62.36574719050324 8.917038598673738" fill="red" stroke="none" /><path d="M 120.87857604477298 97.74499172005257 l 38.82537520597224 -4.193367515762734 a60.05117272255442,60.05117272255442 0 0,0 0.10215240456202805,1.0286607732474857 l -38.8918047362165 3.5244312118108136" fill="red" stroke="none" /><line stroke="#e1ed5e" stroke-width="0.3" x1="184.98032266829074" x2="189.97916517819016" y1="98.17113171792111" y2="98.06355123074" /><path d="M 185.9800911702706 98.14961562048488 a86.0,86.0 0 0,1 -9.607161424134198,41.387399972396054" fill="none" id="id124" stroke="none" /><text fill="#e1ed5e" style="font-size:6.75px; font-family:Arial;" text-anchor="middle"><textPath startOffset="21.466115282336823" xlink:href="#id124">April</textPath></text><line stroke="#e1ed5e" stroke-width="0.3" x1="174.80103733775053" x2="179.2010983576182" y1="140.37084112569926" y2="142.7455964860345" /><path d="M 175.68104954172406 140.8457921977663 a86.0,86.0 0 0,1 -30.038265399797805,32.042727171017184" fill="none" id="id125" stroke="none" /><text fill="#e1ed5e" style="font-size:6.75px; font-family:Arial;" text-anchor="middle"><textPath startOffset="22.206326154141568" xlink:href="#id125">May</textPath></text><path d="M 114.81725581225074 114.88116024355365 l 4.289084761324046 4.307582891204195 a27.07877606549355,27.07877606549355 0 0,0 -0.33313348029168866,0.3260412257687031 l -4.214301328656563 -4.3807742198954704" fill="red" stroke="none" /><path d="M 114.29624159901734 115.38237550388516 l 4.509959175032943 4.852596051700561 a27.62475812399545,27.62475812399545 0 0,0 -0.35109811376968075,0.3207198024726737 l -4.425761511796398 -4.929508620759817" fill="red" stroke="none" /><path d="M 114.0293411484842 115.62618273729858 l 4.577508143396387 5.098527291704829 a27.85190202404553,27.85190202404553 0 0,0 -0.3594986204625728,0.3172157343703447 l -4.489067170027227 -5.176566167847462" fill="red" stroke="none" /><path d="M 112.63410532772338 116.77436683061366 l 6.158761778556577 8.177019790168764 a31.23689402571996,31.23689402571996 0 0,0 -0.4322814705388942,0.3197914975142827 l -6.017095337599118 -8.281821236422816" fill="red" stroke="none" /><path d="M 112.04921762599082 117.19931262002967 l 5.131478689236061 7.324783145157405 a29.94340660272504,29.94340660272504 0 0,0 -0.42468750035996916,0.2921039352549657 l -5.004634304253208 -7.412027869777465" fill="red" stroke="none" /><line stroke="#e1ed5e" stroke-width="0.3" x1="143.8653032363475" x2="146.44561519142675" y1="172.8068346515853" y2="177.08958963109032" /><path d="M 144.38136562736335 173.6633856474863 a86.0,86.0 0 0,1 -40.68145358897372,12.25698825130547" fill="none" id="id126" stroke="none" /><text fill="#e1ed5e" style="font-size:6.75px; font-family:Arial;" text-anchor="middle"><textPath startOffset="21.466115282336833" xlink:href="#id126">June</textPath></text><path d="M 110.5260780823613 118.17145234162733 l 4.174016411802886 7.2057170492916995 a29.32735079124525,29.32735079124525 0 0,0 -0.4390042325791663,0.2492780605651274 l -4.049363412302521 -7.276498275651456" fill="red" stroke="none" /><path d="M 107.93186726928326 119.44442032107085 l 3.677065632433239 9.014070366769616 a30.73520807390863,30.73520807390863 0 0,0 -0.4915861245473226,0.19561226413875987 l -3.52135843184405 -9.076029475314446" fill="red" stroke="none" /><path d="M 107.59598834532513 119.57807347666477 l 2.393081299803558 6.1679822813342025 a27.61595371283099,27.61595371283099 0 0,0 -0.4446560158292387,0.16813085748379647 l -2.286555063214044 -6.2082613889246305" fill="red" stroke="none" /><line stroke="#e1ed5e" stroke-width="0.3" x1="102.19456741930631" x2="102.32365962044197" y1="184.97166512339345" y2="189.96999836594603" /><path d="M 102.22038585953345 185.97133177190398 a86.0,86.0 0 0,1 -42.740103519485714,-10.115201625700543" fill="none" id="id127" stroke="none" /><text fill="#e1ed5e" style="font-size:6.75px; font-family:Arial;" text-anchor="middle"><textPath startOffset="22.20632615414155" xlink:href="#id127">July</textPath></text><line stroke="#e1ed5e" stroke-width="0.3" x1="58.666819895761336" x2="56.23545636021788" y1="174.27360380694188" y2="178.64263932499728" /><path d="M 58.180547188652646 175.14741091055294 a86.0,86.0 0 0,1 -31.652253787137756,-30.449443065178592" fill="none" id="id128" stroke="none" /><text fill="#e1ed5e" style="font-size:6.75px; font-family:Arial;" text-anchor="middle"><textPath startOffset="22.20632615414155" xlink:href="#id128">August</textPath></text><line stroke="#e1ed5e" stroke-width="0.3" x1="26.63291911575756" x2="22.317208475507996" y1="142.92168965132927" y2="145.44649492493687" /><path d="M 25.769776987707644 143.4266507060508 a86.0,86.0 0 0,1 -11.730757126820373,-40.83630448921669" fill="none" id="id129" stroke="none" /><text fill="#e1ed5e" style="font-size:6.75px; font-family:Arial;" text-anchor="middle"><textPath startOffset="21.46611528233685" xlink:href="#id129">September</textPath></text><line stroke="#e1ed5e" stroke-width="0.3" x1="15.007084014347285" x2="10.007500721073583" y1="101.09737516637583" y2="101.16192664675087" /><path d="M 14.007167355692545 101.11028546245083 a86.0,86.0 0 0,1 10.666146001902534,-42.60595125391555" fill="none" id="id130" stroke="none" /><text fill="#e1ed5e" style="font-size:6.75px; font-family:Arial;" text-anchor="middle"><textPath startOffset="22.20632615414155" xlink:href="#id130">October</textPath></text><line stroke="#e1ed5e" stroke-width="0.3" x1="26.266209847984243" x2="21.928928074336255" y1="57.711370442889674" y2="55.22380399835377" /><path d="M 25.398753493254645 57.213857153982495 a86.0,86.0 0 0,1 29.58750427330803,-30.492523968695096" fill="none" id="id131" stroke="none" /><text fill="#e1ed5e" style="font-size:6.75px; font-family:Arial;" text-anchor="middle"><textPath startOffset="21.46611528233685" xlink:href="#id131">November</textPath></text><line stroke="#e1ed5e" stroke-width="0.3" x1="56.762969772571076" x2="54.21961505331055" y1="26.818313649435495" y2="22.513508569990535" /><path d="M 56.25429882871897 25.957352633546506 a86.0,86.0 0 0,1 42.265352541879196,-11.944610805530505" fill="none" id="id132" stroke="none" /><text fill="#e1ed5e" style="font-size:6.75px; font-family:Arial;" text-anchor="middle"><textPath startOffset="22.20632615414155" xlink:href="#id132">December</textPath></text></svg>