<?xml version="1.0" encoding="utf-8" ?>
<svg baseProfile="full" height="200mm" version="1.1" viewBox="0,0,200,200" width="200mm" xmlns="http://www.w3.org/2000/svg" xmlns:ev="http://www.w3.org/2001/xml-events" xmlns:xlink="http://www.w3.org/1999/xlink"><defs /><rect fill="#1a1a1a" height="200" width="200" x="0" y="0" /><text alignment-baseline="middle" fill="#e1ed5e" style="dominant-baseline: central; font-size:9.0px; font-family:Arial;" text-anchor="middle" x="100.0" y="100.0">2017</text><line stroke="#e1ed5e" stroke-width="0.3" x1="100.0" x2="100.0" y1="15.0" y2="10.0" /><path d="M 100.0 14.0 a86.0,86.0 0 0,1 42.46469731375804,11.215312516191453" fill="none" id="id13" stroke="none" /><text fill="#e1ed5e" style="font-size:6.75px; font-family:Arial;" text-anchor="middle"><textPath startOffset="22.20632615414155" xlink:href="#id13">January</textPath></text><line stroke="#e1ed5e" stroke-width="0.3" x1="143.23703022742887" x2="145.7803849466894" y1="26.81831364943548" y2="22.513508569990506" /><path d="M 143.74570117128098 25.957352633546492 a86.0,86.0 0 0,1 28.547481713284135,27.462654790039103" fill="none" id="id14" stroke="none" /><text fill="#e1ed5e" style="font-size:6.75px; font-family:Arial;" text-anchor="middle"><textPath startOffset="19.985693538727396" xlink:href="#id14">February</textPath></text><path d="M 116.15771136456269 86.58626213691792 l 2.6196945952166453 -2.174806554512309 a24.404788293236013,24.404788293236013 0 0,0 0.26554909169335394,0.3255317875380145 l -2.656742178986408 2.1293905973661937" fill="#ff0000" stroke="none" /><line stroke="#e1ed5e" stroke-width="0.3" x1="172.23445277983987" x2="176.4835382374775" y1="55.19839476539836" y2="52.563006222186495" /><path d="M 173.08426987136738 54.67131705675599 a86.0,86.0 0 0,1 12.851231095245387,41.99856678651699" fill="none" id="id15" stroke="none" /><text fill="#e1ed5e" style="font-size:6.75px; font-family:Arial;" text-anchor="middle"><textPath startOffset="22.20632615414155" xlink:href="#id15">March</textPath></text><line stroke="#e1ed5e" stroke-width="0.3" x1="184.98032266829074" x2="189.97916517819016" y1="98.17113171792111" y2="98.06355123074" /><path d="M 185.9800911702706 98.14961562048488 a86.0,86.0 0 0,1 -9.607161424134198,41.387399972396054" fill="none" id="id16" stroke="none" /><text fill="#e1ed5e" style="font-size:6.75px; font-family:Arial;" text-anchor="middle"><textPath startOffset="21.466115282336823" xlink:href="#id16">April</textPath></text><line stroke="#e1ed5e" stroke-width="0.3" x1="174.80103733775053" x2="179.2010983576182" y1="140.37084112569926" y2="142.7455964860345" /><path d="M 175.68104954172406 140.8457921977663 a86.0,86.0 0 0,1 -30.038265399797805,32.042727171017184" fill="none" id="id17" stroke="none" /><text fill="#e1ed5e" style="font-size:6.75px; font-family:Arial;" text-anchor="middle"><textPath startOffset="22.206326154141568" xlink:href="#id17">May</textPath></text><line stroke="#e1ed5e" stroke-width="0.3" x1="143.8653032363475" x2="146.44561519142675" y1="172.8068346515853" y2="177.08958963109032" /><path d="M 144.38136562736335 173.6633856474863 a86.0,86.0 0 0,1 -40.68145358897372,12.25698825130547" fill="none" id="id18" stroke="none" /><text fill="#e1ed5e" style="font-size:6.75px; font-family:Arial;" text-anchor="middle"><textPath startOffset="21.466115282336833" xlink:href="#id18">June</textPath></text><line stroke="#e1ed5e" stroke-width="0.3" x1="102.19456741930631" x2="102.32365962044197" y1="184.97166512339345" y2="189.96999836594603" /><path d="M 102.22038585953345 185.97133177190398 a86.0,86.0 0 0,1 -42.740103519485714,-10.115201625700543" fill="none" id="id19" stroke="none" /><text fill="#e1ed5e" style="font-size:6.75px; font-family:Arial;" text-anchor="middle"><textPath startOffset="22.20632615414155" xlink:href="#id19">July</textPath></text><line stroke="#e1ed5e" stroke-width="0.3" x1="58.666819895761336" x2="56.23545636021788" y1="174.27360380694188" y2="178.64263932499728" /><path d="M 58.180547188652646 175.14741091055294 a86.0,86.0 0 0,1 -31.652253787137756,-30.449443065178592" fill="none" id="id20" stroke="none" /><text fill="#e1ed5e" style="font-size:6.75px; font-family:Arial;" text-anchor="middle"><textPath startOffset="22.20632615414155" xlink:href="#id20">August</textPath></text><path d="M 82.85270091963577 112.12312394758628 l -14.784249011371315 10.452449822962285 a39.10601353506006,39.10601353506006 0 0,0 -0.38387038831536163,-0.5529939247747161 l 14.961980306848812 -10.196414636000556" fill="#ffd013" stroke="none" /><path d="M 82.6465618267979 111.8261652097733 l -6.155428628479967 4.194852637893141 a28.448898593345852,28.448898593345852 0 0,0 -0.2722923938927408,-0.4070401837524941 l 6.226724127783439 -4.088275539934826" fill="#ff3c05" stroke="none" /><line stroke="#e1ed5e" stroke-width="0.3" x1="26.63291911575756" x2="22.317208475507996" y1="142.92168965132927" y2="145.44649492493687" /><path d="M 25.769776987707644 143.4266507060508 a86.0,86.0 0 0,1 -11.730757126820373,-40.83630448921669" fill="none" id="id21" stroke="none" /><text fill="#e1ed5e" style="font-size:6.75px; font-family:Arial;" text-anchor="middle"><textPath startOffset="21.46611528233685" xlink:href="#id21">September</textPath></text><path d="M 81.87401531095188 110.60418214915194 l -7.963424415655732 4.6588146510815465 a30.22608705665592,30.22608705665592 0 0,0 -0.25886197244114456,-0.4513476684917332 l 8.042438384249254 -4.521047136731506" fill="#ff5608" stroke="none" /><path d="M 81.35079622478065 109.6543875284942 l -16.195301239279935 8.384042353190049 a39.236774616447576,39.236774616447576 0 0,0 -0.30533932862458607,-0.6024634629259294 l 16.337219237690785 -8.104024678561434" fill="#ffd213" stroke="none" /><path d="M 81.02952815118164 109.00673069616217 l -15.740452648445476 7.473194086581009 a38.42442192538001,38.42442192538001 0 0,0 -0.27853201668091127,-0.5999331845592171 l 15.866759281966214 -7.201140834742965" fill="#ffc712" stroke="none" /><path d="M 80.73074385275274 108.34839909993369 l -16.599625867519137 7.191782629939757 a39.09058640116217,39.09058640116217 0 0,0 -0.2621843209152883,-0.619726286647377 l 16.72096116962673 -6.904981817626221" fill="#ffd013" stroke="none" /><path d="M 80.45479744820244 107.68017299344265 l -46.63209841434632 18.323810250637916 a71.10304007369876,71.10304007369876 0 0,0 -0.43781094380101004,-1.142986221685632 l 46.94060363774084 -17.518400462119125" fill="#3cffa7" stroke="none" /><path d="M 80.32549172779594 107.34259656027581 l -17.600292872699264 6.5684919856170385 a39.78604258937746,39.78604258937746 0 0,0 -0.2339338576381427,-0.6436855056261638 l 17.710750991342632 -6.264558682984758" fill="#ffd914" stroke="none" /><path d="M 79.86692584326677 105.97154293290107 l -16.34612587126893 4.848320314473317 a38.04998653580413,38.04998653580413 0 0,0 -0.18084137250751686,-0.629532541857901 l 16.427159880662554 -4.56623029711082" fill="#ffc212" stroke="none" /><path d="M 79.76711848015287 105.62410040840567 l -32.41988954936281 9.011702751097602 a54.649071679126955,54.649071679126955 0 0,0 -0.24413021620738712,-0.9084993531772902 l 32.570207841911966 -8.452312464744773" fill="#72ff27" stroke="none" /><path d="M 79.58551787078972 104.9243191809786 l -17.900480210183474 4.317899297656309 a39.413892747050284,39.413892747050284 0 0,0 -0.15341282321988983,-0.6608984272446718 l 17.972153599333918 -4.0091322130630624" fill="#ffd413" stroke="none" /><path d="M 79.4281124754447 104.21870165774334 l -17.212750420055862 3.5298393812787388 a38.570957375190446,38.570957375190446 0 0,0 -0.12778019475165295,-0.6515484601283732 l 17.270960547783183 -3.233027194082411" fill="#ffc912" stroke="none" /><path d="M 79.35854240842038 103.8639653848113 l -18.2920872552583 3.424176401142271 a39.60982106792332,39.60982106792332 0 0,0 -0.11968495547942334,-0.6712567907088773 l 18.34831865307691 -3.10880085970018" fill="#ffd714" stroke="none" /><path d="M 79.18660465613746 102.79330883721812 l -19.693846620995696 2.643057266553446 a40.87041384686249,40.87041384686249 0 0,0 -0.087576520931692,-0.6980710391331252 l 19.736424651174236 -2.303668473132912" fill="#ffe715" stroke="none" /><path d="M 79.0235259727143 100.99374915477108 l -17.01814408355621 0.8062254064628779 a38.03723062750239,38.03723062750239 0 0,0 -0.025354290525333906,-0.6542815792014253 l 17.02950050693274 -0.5131665802474558" fill="#ffc212" stroke="none" /><path d="M 79.0095281055655 100.63252640178507 l -19.607553591987934 0.5908535731698608 a40.616453955993336,40.616453955993336 0 0,0 -0.015043439658428434,-0.699009528866062 l 19.61481909433137 -0.25325422851366985" fill="#ffe415" stroke="none" /><line stroke="#e1ed5e" stroke-width="0.3" x1="15.007084014347285" x2="10.007500721073583" y1="101.09737516637583" y2="101.16192664675087" /><path d="M 14.007167355692545 101.11028546245083 a86.0,86.0 0 0,1 10.666146001902534,-42.60595125391555" fill="none" id="id22" stroke="none" /><text fill="#e1ed5e" style="font-size:6.75px; font-family:Arial;" text-anchor="middle"><textPath startOffset="22.20632615414155" xlink:href="#id22">October</textPath></text><path d="M 79.00175016825051 100.2711162175752 l -35.268032372102105 0.45535869011267666 a56.270971902349146,56.270971902349146 0 0,0 -0.004168614452894493,-0.9686391902365007 l 35.2706452838445 0.15178997832749933" fill="#61ff29" stroke="none" /><path d="M 79.00019446554 99.90962569577889 l -62.99941660337998 -0.27112291266336075 a84.0,84.0 0 0,0 0.018667971529137795,-1.445854967758112 l 62.98541562473312 1.3555141384819447" fill="#4dd2ff" stroke="none" /><path d="M 80.14247586403 93.16781622104843 l -54.87346964046364 -18.87977708627137 a79.0305406937604,79.0305406937604 0 0,0 0.4536613429794187,-1.2825617072962785 l 54.540355216674406 19.82153641999426" fill="#47fffc" stroke="none" /><path d="M 80.2630227832202 92.82701384747504 l -12.086517935139016 -4.392588836110623 a33.859967048152214,33.859967048152214 0 0,0 0.2037973556367871,-0.5460755914360982 l 12.0091159910006 4.599987564576064" fill="#ff8a0c" stroke="none" /><path d="M 80.38941819471856 92.48833698450439 l -6.200443779624348 -2.3750261303578726 a27.63974790064841,27.63974790064841 0 0,0 0.17400728343379557,-0.4428295564573044 l 6.158642946308861 2.48140469171094" fill="#ff3004" stroke="none" /><path d="M 80.52162464483688 92.15188598940014 l -15.841316902246456 -6.382691516103166 a38.07881940261488,38.07881940261488 0 0,0 0.2501929174541833,-0.6058619947394992 l 15.729102297906072 6.654428081295976" fill="#ffc312" stroke="none" /><path d="M 80.65960295795068 91.81776055985345 l -7.091505184131074 -3.0001655747524727 a28.700028522835986,28.700028522835986 0 0,0 0.19640289173864645,-0.45332495292446173 l 7.038811582549746 3.1217896722635334" fill="#ff4006" stroke="none" /><path d="M 81.43458229118936 90.18545643968196 l -14.577464287279703 -7.706325841437417 a37.48908496616235,37.48908496616235 0 0,0 0.3065034407809822,-0.56790432596195 l 14.442652747280249 7.95611115073184" fill="#ffbb11" stroke="none" /><path d="M 81.6062741919709 89.86733742301443 l -14.260026549154029 -7.855506756459367 a37.2805817949899,37.2805817949899 0 0,0 0.31447477110261807,-0.5594155277536373 l 14.12269413675898 8.09980579414779" fill="#ffb811" stroke="none" /><line stroke="#e1ed5e" stroke-width="0.3" x1="26.266209847984243" x2="21.928928074336255" y1="57.711370442889674" y2="55.22380399835377" /><path d="M 25.398753493254645 57.213857153982495 a86.0,86.0 0 0,1 29.58750427330803,-30.492523968695096" fill="none" id="id23" stroke="none" /><text fill="#e1ed5e" style="font-size:6.75px; font-family:Arial;" text-anchor="middle"><textPath startOffset="21.46611528233685" xlink:href="#id23">November</textPath></text><path d="M 81.78341655067845 89.55222093294921 l -13.483347329868733 -7.733120449214876 a36.54354551252524,36.54354551252524 0 0,0 0.3176509854221358,-0.5429685021662107 l 13.348236669976274 7.964068363734978" fill="#ffae10" stroke="none" /><path d="M 81.96595687620814 89.24020034530311 l -15.879894148865091 -9.474552012918533 a39.491570350423416,39.491570350423416 0 0,0 0.3533258176053813,-0.5807747433747971 l 15.714452532973494 9.746494529500405" fill="#ffd513" stroke="none" /><path d="M 82.15384107792192 88.93136811851018 l -6.865637745363981 -4.258239387360934 a29.07895935938773,29.07895935938773 0 0,0 0.26748821324375666,-0.423102115918269 l 6.791321935874261 4.375789150993419" fill="#ff4606" stroke="none" /><path d="M 82.54541684631803 88.32363383020206 l -27.6755507508983 -18.513754334496827 a54.29707508060802,54.29707508060802 0 0,0 0.5263598129599666,-0.7723680761292322 l 27.35276647226959 18.987400433896475" fill="#76ff27" stroke="none" /><path d="M 82.7489923806493 88.02491185347247 l -6.574207029262396 -4.563600596908272 a29.002914998405558,29.002914998405558 0 0,0 0.2882163023365744,-0.40766152003138556 l 6.494678107121944 4.676088617271444" fill="#ff4406" stroke="none" /><path d="M 83.17141714833178 87.43820079747576 l -13.00278881818329 -9.706011709159108 a37.225879956064205,37.225879956064205 0 0,0 0.3877235996533493,-0.5101988086943152 l 12.833789278305833 9.92839529373445" fill="#ffb711" stroke="none" /><path d="M 83.39014120810768 87.1503855733568 l -12.558649318563864 -9.715543249635667 a36.878017928639764,36.878017928639764 0 0,0 0.3927437250248886,-0.4987446470318841 l 12.389551512945005 9.9302802906206" fill="#ffb310" stroke="none" /><path d="M 84.31358615837235 86.03803664274999 l -5.994070543723022 -5.335125933637154 a29.024490663643128,29.024490663643128 0 0,0 0.33537986844824924,-0.370334827344951 l 5.901347034658728 5.437513548251661" fill="#ff4506" stroke="none" /><path d="M 86.37877921826538 84.01681056812374 l -5.481540312949046 -6.43205910866777 a29.45095666654856,29.45095666654856 0 0,0 0.3886719366417989,-0.32550156933099555 l 5.3700108393481365 6.525461835392577" fill="#ff4b07" stroke="none" /><path d="M 86.65592168130627 83.78471172551755 l -10.08801462054755 -12.258625982448917 a36.87582911100875,36.87582911100875 0 0,0 0.49360334467718175,-0.3991262435839061 l 9.87550787730587 12.430458323296957" fill="#ffb310" stroke="none" /><path d="M 86.93701828274178 83.55741782278169 l -10.31446133776254 -12.982976002778793 a37.581489033766786,37.581489033766786 0 0,0 0.5099762334884089,-0.3980445393466779 l 10.089452549114705 13.158598931348692" fill="#ffbc11" stroke="none" /><path d="M 87.22198572758235 83.33499621200491 l -9.465636016558063 -12.345021433590626 a36.55627909860752,36.55627909860752 0 0,0 0.5026555330478428,-0.37858972634957216 l 9.25173432975183 12.506127749446053" fill="#ffae10" stroke="none" /><path d="M 88.09926311788651 82.69761687909137 l -4.554510914049661 -6.621765823735443 a29.03687453495376,29.03687453495376 0 0,0 0.4142529190370687,-0.27970542011901783 l 4.439853300606053 6.6991831561531265" fill="#ff4506" stroke="none" /><line stroke="#e1ed5e" stroke-width="0.3" x1="56.762969772571076" x2="54.21961505331055" y1="26.818313649435495" y2="22.513508569990535" /><path d="M 56.25429882871897 25.957352633546506 a86.0,86.0 0 0,1 42.265352541879196,-11.944610805530505" fill="none" id="id24" stroke="none" /><text fill="#e1ed5e" style="font-size:6.75px; font-family:Arial;" text-anchor="middle"><textPath startOffset="22.20632615414155" xlink:href="#id24">December</textPath></text><path d="M 90.58718382345135 81.22770947309562 l -3.590823891934879 -7.161298814938434 a29.011130815292493,29.011130815292493 0 0,0 0.4483307393372219,-0.21999394671375058 l 3.4670218855872315 7.222047921787014" fill="#ff4506" stroke="none" /><path d="M 90.91171255644093 81.06846463323043 l -3.5708745337511667 -7.438380216937031 a29.251099635049428,29.251099635049428 0 0,0 0.45579034019210685,-0.21399967620141364 l 3.4423059822594517 7.498744875778453" fill="#ff4806" stroke="none" /><path d="M 91.90106846888425 80.62456947434976 l -13.79587520703678 -33.004479737545914 a56.77180251922191,56.77180251922191 0 0,0 0.9048780026536472,-0.3691224574159777 l 13.22571333479475 33.23706308114547" fill="#5cff2a" stroke="none" /><path d="M 96.04723909329186 79.375362276772 l -1.3827746810602717 -7.21501439698033 a28.34632551465117,28.34632551465117 0 0,0 0.4800043643721664,-0.08771772947833101 l 1.258375195585212 7.237747607809398" fill="#ff3b05" stroke="none" /><path d="M 96.40284397218896 79.31037775812273 l -1.3098216769956141 -7.5336503314682055 a28.64666725720157,28.64666725720157 0 0,0 0.486544264385775,-0.080283972495778 l 1.1799482064709534 7.5550805669036105" fill="#ff3f05" stroke="none" /><path d="M 97.11714578562143 79.19881850522333 l -3.6559968721222815 -26.379778103952663 a47.631917053467035,47.631917053467035 0 0,0 0.8131114626953967,-0.10556520431310042 l 3.201370680919027 26.4388016314299" fill="#c3ff1e" stroke="none" /><path d="M 97.47563105711357 79.15227682838746 l -1.9417530343515048 -16.03613839485432 a37.15327024058392,37.15327024058392 0 0,0 0.6355567497104407,-0.07141220612906465 l 1.6654295811313462 16.067186554453983" fill="#ffb610" stroke="none" /><path d="M 97.83486435360386 79.11191278185805 l -0.7737733076457508 -7.464956925020956 a28.504952166672574,28.504952166672574 0 0,0 0.48848647801334216,-0.046387677091279035 l 0.6451617025421723 7.477170146627415" fill="#ff3d05" stroke="none" /></svg>